<?xml version="1.0" encoding="UTF-8"?>
<!--Generator: Apple Native CoreSVG 149-->
<!DOCTYPE svg
PUBLIC "-//W3C//DTD SVG 1.1//EN"
       "http://www.w3.org/Graphics/SVG/1.1/DTD/svg11.dtd">
<svg version="1.1" xmlns="http://www.w3.org/2000/svg" xmlns:xlink="http://www.w3.org/1999/xlink" width="3300" height="2200">
 <!--glyph: "uni1010A5.medium", point size: 100.0, font version: "17.0d9e1", template writer version: "59"-->
 <g id="Notes">
  <rect height="2200" id="artboard" style="fill:white;opacity:1" width="3300" x="0" y="0"/>
  <line style="fill:none;stroke:black;opacity:1;stroke-width:0.5;" x1="263" x2="3036" y1="292" y2="292"/>
  <text style="stroke:none;fill:black;font-family:sans-serif;font-size:13;font-weight:bold;" transform="matrix(1 0 0 1 263 322)">Weight/Scale Variations</text>
  <text style="stroke:none;fill:black;font-family:sans-serif;font-size:13;text-anchor:middle;" transform="matrix(1 0 0 1 559.711 322)">Ultralight</text>
  <text style="stroke:none;fill:black;font-family:sans-serif;font-size:13;text-anchor:middle;" transform="matrix(1 0 0 1 856.422 322)">Thin</text>
  <text style="stroke:none;fill:black;font-family:sans-serif;font-size:13;text-anchor:middle;" transform="matrix(1 0 0 1 1153.13 322)">Light</text>
  <text style="stroke:none;fill:black;font-family:sans-serif;font-size:13;text-anchor:middle;" transform="matrix(1 0 0 1 1449.84 322)">Regular</text>
  <text style="stroke:none;fill:black;font-family:sans-serif;font-size:13;text-anchor:middle;" transform="matrix(1 0 0 1 1746.56 322)">Medium</text>
  <text style="stroke:none;fill:black;font-family:sans-serif;font-size:13;text-anchor:middle;" transform="matrix(1 0 0 1 2043.27 322)">Semibold</text>
  <text style="stroke:none;fill:black;font-family:sans-serif;font-size:13;text-anchor:middle;" transform="matrix(1 0 0 1 2339.98 322)">Bold</text>
  <text style="stroke:none;fill:black;font-family:sans-serif;font-size:13;text-anchor:middle;" transform="matrix(1 0 0 1 2636.69 322)">Heavy</text>
  <text style="stroke:none;fill:black;font-family:sans-serif;font-size:13;text-anchor:middle;" transform="matrix(1 0 0 1 2933.4 322)">Black</text>
  <line style="fill:none;stroke:black;opacity:1;stroke-width:0.5;" x1="263" x2="3036" y1="1903" y2="1903"/>
  <g transform="matrix(1 0 0 1 263 1933)">
   <path d="M9.24805 0.830078Q10.8691 0.830078 12.2949 0.214844Q13.7207-0.400391 14.8096-1.49414Q15.8984-2.58789 16.5186-4.01367Q17.1387-5.43945 17.1387-7.05078Q17.1387-8.66211 16.5186-10.0879Q15.8984-11.5137 14.8047-12.6074Q13.7109-13.7012 12.2852-14.3164Q10.8594-14.9316 9.23828-14.9316Q7.62695-14.9316 6.20117-14.3164Q4.77539-13.7012 3.69141-12.6074Q2.60742-11.5137 1.9873-10.0879Q1.36719-8.66211 1.36719-7.05078Q1.36719-5.43945 1.9873-4.01367Q2.60742-2.58789 3.69629-1.49414Q4.78516-0.400391 6.21094 0.214844Q7.63672 0.830078 9.24805 0.830078ZM9.24805-0.654297Q7.91992-0.654297 6.7627-1.14746Q5.60547-1.64062 4.73145-2.51953Q3.85742-3.39844 3.36426-4.56055Q2.87109-5.72266 2.87109-7.05078Q2.87109-8.37891 3.35938-9.54102Q3.84766-10.7031 4.72168-11.582Q5.5957-12.4609 6.75293-12.9541Q7.91016-13.4473 9.23828-13.4473Q10.5762-13.4473 11.7334-12.9541Q12.8906-12.4609 13.7695-11.582Q14.6484-10.7031 15.1465-9.54102Q15.6445-8.37891 15.6445-7.05078Q15.6445-5.72266 15.1514-4.56055Q14.6582-3.39844 13.7842-2.51953Q12.9102-1.64062 11.748-1.14746Q10.5859-0.654297 9.24805-0.654297ZM5.83984-7.04102Q5.83984-6.71875 6.04492-6.51855Q6.25-6.31836 6.5918-6.31836L8.50586-6.31836L8.50586-4.39453Q8.50586-4.0625 8.70605-3.85742Q8.90625-3.65234 9.22852-3.65234Q9.56055-3.65234 9.76562-3.85742Q9.9707-4.0625 9.9707-4.39453L9.9707-6.31836L11.8945-6.31836Q12.2266-6.31836 12.4316-6.51855Q12.6367-6.71875 12.6367-7.04102Q12.6367-7.37305 12.4316-7.57812Q12.2266-7.7832 11.8945-7.7832L9.9707-7.7832L9.9707-9.69727Q9.9707-10.0391 9.76562-10.2441Q9.56055-10.4492 9.22852-10.4492Q8.90625-10.4492 8.70605-10.2441Q8.50586-10.0391 8.50586-9.69727L8.50586-7.7832L6.5918-7.7832Q6.25-7.7832 6.04492-7.57812Q5.83984-7.37305 5.83984-7.04102Z"/>
  </g>
  <g transform="matrix(1 0 0 1 281.867 1933)">
   <path d="M11.709 2.91016Q13.75 2.91016 15.5518 2.12891Q17.3535 1.34766 18.7305-0.0292969Q20.1074-1.40625 20.8887-3.20801Q21.6699-5.00977 21.6699-7.05078Q21.6699-9.0918 20.8887-10.8936Q20.1074-12.6953 18.7305-14.0723Q17.3535-15.4492 15.5469-16.2305Q13.7402-17.0117 11.6992-17.0117Q9.6582-17.0117 7.85645-16.2305Q6.05469-15.4492 4.68262-14.0723Q3.31055-12.6953 2.5293-10.8936Q1.74805-9.0918 1.74805-7.05078Q1.74805-5.00977 2.5293-3.20801Q3.31055-1.40625 4.6875-0.0292969Q6.06445 1.34766 7.86621 2.12891Q9.66797 2.91016 11.709 2.91016ZM11.709 1.25Q9.98047 1.25 8.47656 0.605469Q6.97266-0.0390625 5.83496-1.17676Q4.69727-2.31445 4.05762-3.81836Q3.41797-5.32227 3.41797-7.05078Q3.41797-8.7793 4.05762-10.2832Q4.69727-11.7871 5.83008-12.9297Q6.96289-14.0723 8.4668-14.7119Q9.9707-15.3516 11.6992-15.3516Q13.4277-15.3516 14.9316-14.7119Q16.4355-14.0723 17.5781-12.9297Q18.7207-11.7871 19.3652-10.2832Q20.0098-8.7793 20.0098-7.05078Q20.0098-5.32227 19.3701-3.81836Q18.7305-2.31445 17.5928-1.17676Q16.4551-0.0390625 14.9463 0.605469Q13.4375 1.25 11.709 1.25ZM7.39258-7.04102Q7.39258-6.68945 7.62695-6.46484Q7.86133-6.24023 8.23242-6.24023L10.8789-6.24023L10.8789-3.57422Q10.8789-3.21289 11.1035-2.9834Q11.3281-2.75391 11.6797-2.75391Q12.0508-2.75391 12.2852-2.9834Q12.5195-3.21289 12.5195-3.57422L12.5195-6.24023L15.1758-6.24023Q15.5371-6.24023 15.7715-6.46484Q16.0059-6.68945 16.0059-7.04102Q16.0059-7.41211 15.7715-7.6416Q15.5371-7.87109 15.1758-7.87109L12.5195-7.87109L12.5195-10.5176Q12.5195-10.8984 12.2852-11.1279Q12.0508-11.3574 11.6797-11.3574Q11.3281-11.3574 11.1035-11.1279Q10.8789-10.8984 10.8789-10.5176L10.8789-7.87109L8.23242-7.87109Q7.85156-7.87109 7.62207-7.6416Q7.39258-7.41211 7.39258-7.04102Z"/>
  </g>
  <g transform="matrix(1 0 0 1 305.646 1933)">
   <path d="M14.9707 5.66406Q17.0605 5.66406 18.96 5.01465Q20.8594 4.36523 22.4512 3.19336Q24.043 2.02148 25.2197 0.429688Q26.3965-1.16211 27.0459-3.06641Q27.6953-4.9707 27.6953-7.05078Q27.6953-9.14062 27.0459-11.04Q26.3965-12.9395 25.2197-14.5312Q24.043-16.123 22.4512-17.2998Q20.8594-18.4766 18.9551-19.126Q17.0508-19.7754 14.9609-19.7754Q12.8711-19.7754 10.9717-19.126Q9.07227-18.4766 7.48535-17.2998Q5.89844-16.123 4.72168-14.5312Q3.54492-12.9395 2.90039-11.04Q2.25586-9.14062 2.25586-7.05078Q2.25586-4.9707 2.90527-3.06641Q3.55469-1.16211 4.72656 0.429688Q5.89844 2.02148 7.49023 3.19336Q9.08203 4.36523 10.9814 5.01465Q12.8809 5.66406 14.9707 5.66406ZM14.9707 3.84766Q13.1641 3.84766 11.5283 3.2959Q9.89258 2.74414 8.53516 1.74805Q7.17773 0.751953 6.17676-0.610352Q5.17578-1.97266 4.62891-3.6084Q4.08203-5.24414 4.08203-7.05078Q4.08203-8.86719 4.62891-10.5029Q5.17578-12.1387 6.17188-13.501Q7.16797-14.8633 8.52539-15.8594Q9.88281-16.8555 11.5186-17.4023Q13.1543-17.9492 14.9609-17.9492Q16.7773-17.9492 18.4131-17.4023Q20.0488-16.8555 21.4111-15.8594Q22.7734-14.8633 23.7695-13.501Q24.7656-12.1387 25.3174-10.5029Q25.8691-8.86719 25.8691-7.05078Q25.8789-5.24414 25.332-3.6084Q24.7852-1.97266 23.7842-0.610352Q22.7832 0.751953 21.4209 1.74805Q20.0586 2.74414 18.4229 3.2959Q16.7871 3.84766 14.9707 3.84766ZM9.45312-7.04102Q9.45312-6.66016 9.71191-6.41113Q9.9707-6.16211 10.3711-6.16211L14.0625-6.16211L14.0625-2.46094Q14.0625-2.06055 14.3115-1.80664Q14.5605-1.55273 14.9414-1.55273Q15.3516-1.55273 15.6055-1.80664Q15.8594-2.06055 15.8594-2.46094L15.8594-6.16211L19.5605-6.16211Q19.9609-6.16211 20.2148-6.41113Q20.4688-6.66016 20.4688-7.04102Q20.4688-7.45117 20.2148-7.70508Q19.9609-7.95898 19.5605-7.95898L15.8594-7.95898L15.8594-11.6504Q15.8594-12.0605 15.6055-12.3145Q15.3516-12.5684 14.9414-12.5684Q14.5605-12.5684 14.3115-12.3096Q14.0625-12.0508 14.0625-11.6504L14.0625-7.95898L10.3711-7.95898Q9.96094-7.95898 9.70703-7.70508Q9.45312-7.45117 9.45312-7.04102Z"/>
  </g>
  <text style="stroke:none;fill:black;font-family:sans-serif;font-size:13;font-weight:bold;" transform="matrix(1 0 0 1 263 1953)">Design Variations</text>
  <text style="stroke:none;fill:black;font-family:sans-serif;font-size:13;" transform="matrix(1 0 0 1 263 1971)">Symbols are supported in up to nine weights and three scales.</text>
  <text style="stroke:none;fill:black;font-family:sans-serif;font-size:13;" transform="matrix(1 0 0 1 263 1989)">For optimal layout with text and other symbols, vertically align</text>
  <text style="stroke:none;fill:black;font-family:sans-serif;font-size:13;" transform="matrix(1 0 0 1 263 2007)">symbols with the adjacent text.</text>
  <line style="fill:none;stroke:#00AEEF;stroke-width:0.5;opacity:1.0;" x1="776" x2="776" y1="1919" y2="1933"/>
  <g transform="matrix(1 0 0 1 776 1933)">
   <path d="M3.31055 0.15625Q3.70117 0.15625 3.91602-0.00976562Q4.13086-0.175781 4.26758-0.585938L5.52734-4.0332L11.2891-4.0332L12.5488-0.585938Q12.6855-0.175781 12.9004-0.00976562Q13.1152 0.15625 13.4961 0.15625Q13.8867 0.15625 14.1162-0.0585938Q14.3457-0.273438 14.3457-0.644531Q14.3457-0.869141 14.2383-1.17188L9.6582-13.3691Q9.48242-13.8184 9.17969-14.043Q8.87695-14.2676 8.4082-14.2676Q7.5-14.2676 7.17773-13.3789L2.59766-1.16211Q2.49023-0.859375 2.49023-0.634766Q2.49023-0.263672 2.70996-0.0537109Q2.92969 0.15625 3.31055 0.15625ZM6.00586-5.51758L8.37891-12.0898L8.42773-12.0898L10.8008-5.51758Z"/>
  </g>
  <line style="fill:none;stroke:#00AEEF;stroke-width:0.5;opacity:1.0;" x1="793.197" x2="793.197" y1="1919" y2="1933"/>
  <text style="stroke:none;fill:black;font-family:sans-serif;font-size:13;font-weight:bold;" transform="matrix(1 0 0 1 776 1953)">Margins</text>
  <text style="stroke:none;fill:black;font-family:sans-serif;font-size:13;" transform="matrix(1 0 0 1 776 1971)">Leading and trailing margins on the left and right side of each symbol</text>
  <text style="stroke:none;fill:black;font-family:sans-serif;font-size:13;" transform="matrix(1 0 0 1 776 1989)">can be adjusted by modifying the x-location of the margin guidelines.</text>
  <text style="stroke:none;fill:black;font-family:sans-serif;font-size:13;" transform="matrix(1 0 0 1 776 2007)">Modifications are automatically applied proportionally to all</text>
  <text style="stroke:none;fill:black;font-family:sans-serif;font-size:13;" transform="matrix(1 0 0 1 776 2025)">scales and weights.</text>
  <g transform="matrix(1 0 0 1 1289 1933)">
   <path d="M2.8418 1.86523L4.54102 3.57422Q5.18555 4.22852 5.90332 4.17969Q6.62109 4.13086 7.31445 3.35938L18.0078-8.42773L17.041-9.4043L6.42578 2.27539Q6.16211 2.57812 5.89355 2.61719Q5.625 2.65625 5.27344 2.30469L4.10156 1.14258Q3.75 0.791016 3.79395 0.522461Q3.83789 0.253906 4.14062-0.0195312L15.6152-10.8203L14.6387-11.7871L3.04688-0.898438Q2.30469-0.214844 2.25098 0.498047Q2.19727 1.21094 2.8418 1.86523ZM9.25781-16.3281Q8.94531-16.0254 8.90625-15.6348Q8.86719-15.2441 9.04297-14.9512Q9.21875-14.6777 9.55566-14.541Q9.89258-14.4043 10.3809-14.5215Q11.4746-14.7754 12.5977-14.7314Q13.7207-14.6875 14.7949-13.9844L14.209-12.5293Q13.9551-11.9043 14.0674-11.4404Q14.1797-10.9766 14.5801-10.5664L16.875-8.25195Q17.2363-7.88086 17.5781-7.82227Q17.9199-7.76367 18.3398-7.8418L19.4043-8.03711L20.0684-7.36328L20.0293-6.80664Q20-6.43555 20.1221-6.12305Q20.2441-5.81055 20.6055-5.44922L21.3672-4.70703Q21.7285-4.3457 22.1533-4.33105Q22.5781-4.31641 22.9297-4.66797L25.8398-7.58789Q26.1914-7.93945 26.1816-8.35449Q26.1719-8.76953 25.8105-9.13086L25.0391-9.89258Q24.6875-10.2539 24.3799-10.3857Q24.0723-10.5176 23.7109-10.4883L23.1348-10.4395L22.4902-11.0742L22.7344-12.1973Q22.832-12.6172 22.6953-12.9834Q22.5586-13.3496 22.1191-13.7891L19.9219-15.9766Q18.6719-17.2168 17.2607-17.8369Q15.8496-18.457 14.4189-18.4814Q12.9883-18.5059 11.665-17.959Q10.3418-17.4121 9.25781-16.3281ZM10.752-15.957Q11.6602-16.6211 12.7002-16.9043Q13.7402-17.1875 14.8047-17.085Q15.8691-16.9824 16.8701-16.5137Q17.8711-16.0449 18.7012-15.2051L21.1328-12.793Q21.3086-12.6172 21.3525-12.4512Q21.3965-12.2852 21.3379-12.0312L21.0156-10.5469L22.5195-9.0625L23.5059-9.12109Q23.6914-9.13086 23.7891-9.09668Q23.8867-9.0625 24.0332-8.91602L24.6094-8.33984L22.168-5.89844L21.5918-6.47461Q21.4453-6.62109 21.4062-6.71875Q21.3672-6.81641 21.377-7.01172L21.4453-7.98828L19.9512-9.47266L18.4277-9.21875Q18.1836-9.16992 18.042-9.2041Q17.9004-9.23828 17.7148-9.41406L15.7129-11.416Q15.5176-11.5918 15.4932-11.7529Q15.4688-11.9141 15.5859-12.1875L16.4648-14.2773Q15.293-15.3711 13.8281-15.791Q12.3633-16.2109 10.8398-15.7617Q10.7227-15.7324 10.6885-15.8057Q10.6543-15.8789 10.752-15.957Z"/>
  </g>
  <text style="stroke:none;fill:black;font-family:sans-serif;font-size:13;font-weight:bold;" transform="matrix(1 0 0 1 1289 1953)">Exporting</text>
  <text style="stroke:none;fill:black;font-family:sans-serif;font-size:13;" transform="matrix(1 0 0 1 1289 1971)">Symbols should be outlined when exporting to ensure the</text>
  <text style="stroke:none;fill:black;font-family:sans-serif;font-size:13;" transform="matrix(1 0 0 1 1289 1989)">design is preserved when submitting to Xcode.</text>
  <text id="template-version" style="stroke:none;fill:black;font-family:sans-serif;font-size:13;text-anchor:end;" transform="matrix(1 0 0 1 3036 1933)">Template v.2.0</text>
  <text style="stroke:none;fill:black;font-family:sans-serif;font-size:13;text-anchor:end;" transform="matrix(1 0 0 1 3036 1951)">Requires Xcode 13 or greater</text>
  <text id="descriptive-name" style="stroke:none;fill:black;font-family:sans-serif;font-size:13;text-anchor:end;" transform="matrix(1 0 0 1 3036 1969)">Generated from chart.xyaxis.line</text>
  <text style="stroke:none;fill:black;font-family:sans-serif;font-size:13;text-anchor:end;" transform="matrix(1 0 0 1 3036 1987)">Typeset at 100 points</text>
  <text style="stroke:none;fill:black;font-family:sans-serif;font-size:13;" transform="matrix(1 0 0 1 263 726)">Small</text>
  <text style="stroke:none;fill:black;font-family:sans-serif;font-size:13;" transform="matrix(1 0 0 1 263 1156)">Medium</text>
  <text style="stroke:none;fill:black;font-family:sans-serif;font-size:13;" transform="matrix(1 0 0 1 263 1586)">Large</text>
 </g>
 <g id="Guides">
  <g id="H-reference" style="fill:#27AAE1;stroke:none;" transform="matrix(1 0 0 1 339 696)">
   <path d="M0.976562 0L3.66211 0L29.3457-67.1387L30.0293-67.1387L30.0293-70.459L28.125-70.459ZM11.6699-24.4629L46.9727-24.4629L46.2402-26.709L12.4512-26.709ZM55.127 0L57.7637 0L30.6152-70.459L29.4434-70.459L29.4434-67.1387Z"/>
  </g>
  <line id="Baseline-S" style="fill:none;stroke:#27AAE1;opacity:1;stroke-width:0.5;" x1="263" x2="3036" y1="696" y2="696"/>
  <line id="Capline-S" style="fill:none;stroke:#27AAE1;opacity:1;stroke-width:0.5;" x1="263" x2="3036" y1="625.541" y2="625.541"/>
  <g id="H-reference" style="fill:#27AAE1;stroke:none;" transform="matrix(1 0 0 1 339 1126)">
   <path d="M0.976562 0L3.66211 0L29.3457-67.1387L30.0293-67.1387L30.0293-70.459L28.125-70.459ZM11.6699-24.4629L46.9727-24.4629L46.2402-26.709L12.4512-26.709ZM55.127 0L57.7637 0L30.6152-70.459L29.4434-70.459L29.4434-67.1387Z"/>
  </g>
  <line id="Baseline-M" style="fill:none;stroke:#27AAE1;opacity:1;stroke-width:0.5;" x1="263" x2="3036" y1="1126" y2="1126"/>
  <line id="Capline-M" style="fill:none;stroke:#27AAE1;opacity:1;stroke-width:0.5;" x1="263" x2="3036" y1="1055.54" y2="1055.54"/>
  <g id="H-reference" style="fill:#27AAE1;stroke:none;" transform="matrix(1 0 0 1 339 1556)">
   <path d="M0.976562 0L3.66211 0L29.3457-67.1387L30.0293-67.1387L30.0293-70.459L28.125-70.459ZM11.6699-24.4629L46.9727-24.4629L46.2402-26.709L12.4512-26.709ZM55.127 0L57.7637 0L30.6152-70.459L29.4434-70.459L29.4434-67.1387Z"/>
  </g>
  <line id="Baseline-L" style="fill:none;stroke:#27AAE1;opacity:1;stroke-width:0.5;" x1="263" x2="3036" y1="1556" y2="1556"/>
  <line id="Capline-L" style="fill:none;stroke:#27AAE1;opacity:1;stroke-width:0.5;" x1="263" x2="3036" y1="1485.54" y2="1485.54"/>
  <line id="left-margin" style="fill:none;stroke:#00AEEF;stroke-width:0.5;opacity:1.0;" x1="1384.9" x2="1384.9" y1="1030.79" y2="1150.12"/>
  <line id="right-margin" style="fill:none;stroke:#00AEEF;stroke-width:0.5;opacity:1.0;" x1="1514.79" x2="1514.79" y1="1030.79" y2="1150.12"/>
 </g>
 <g id="Symbols">
  <g id="Black-L" transform="matrix(1 0 0 1 2844.26 1556)">
   <path d="M16.0645 22.0703Q16.0645 25.0977 17.9443 26.9775Q19.8242 28.8574 22.8516 28.8574L151.855 28.8574Q156.25 28.8574 159.229 26.0498Q162.207 23.2422 162.207 18.75Q162.207 14.2578 159.229 11.4258Q156.25 8.59375 151.855 8.59375L38.0371 8.59375Q36.3281 8.59375 36.3281 6.88477L36.3281-89.9414Q36.3281-94.3359 33.4961-97.3145Q30.6641-100.293 26.1719-100.293Q21.6797-100.293 18.8721-97.3145Q16.0645-94.3359 16.0645-89.9414ZM23.584-19.7754L66.1133-44.3359L98.584-17.6758L155.176-51.7578L147.705-64.209L99.707-35.2539L67.334-61.8164L23.584-36.4746ZM66.6016-36.7188Q70.7031-36.7188 74.1211-38.7451Q77.5391-40.7715 79.5654-44.165Q81.5918-47.5586 81.5918-51.6602Q81.5918-55.8105 79.5654-59.2041Q77.5391-62.5977 74.1211-64.624Q70.7031-66.6504 66.6016-66.6504Q62.4512-66.6504 59.0576-64.624Q55.6641-62.5977 53.6377-59.2041Q51.6113-55.8105 51.6113-51.6602Q51.6113-47.5586 53.6377-44.165Q55.6641-40.7715 59.0576-38.7451Q62.4512-36.7188 66.6016-36.7188ZM99.5117-11.4258Q103.662-11.4258 107.056-13.4521Q110.449-15.4785 112.476-18.8721Q114.502-22.2656 114.502-26.416Q114.502-30.5176 112.476-33.9355Q110.449-37.3535 107.056-39.3799Q103.662-41.4062 99.5117-41.4062Q95.4102-41.4062 91.9922-39.3799Q88.5742-37.3535 86.5479-33.9355Q84.5215-30.5176 84.5215-26.416Q84.5215-22.2656 86.5479-18.8721Q88.5742-15.4785 91.9922-13.4521Q95.4102-11.4258 99.5117-11.4258ZM146.729-40.5762Q150.879-40.5762 154.272-42.6025Q157.666-44.6289 159.692-48.0225Q161.719-51.416 161.719-55.5664Q161.719-59.668 159.692-63.0859Q157.666-66.5039 154.272-68.5303Q150.879-70.5566 146.729-70.5566Q142.627-70.5566 139.209-68.5303Q135.791-66.5039 133.765-63.0859Q131.738-59.668 131.738-55.5664Q131.738-51.416 133.765-48.0225Q135.791-44.6289 139.209-42.6025Q142.627-40.5762 146.729-40.5762Z"/>
  </g>
  <g id="Heavy-L" transform="matrix(1 0 0 1 2548.9 1556)">
   <path d="M16.0645 21.2891Q16.0645 24.0723 17.7979 25.8057Q19.5312 27.5391 22.3145 27.5391L150.586 27.5391Q154.395 27.5391 156.958 25.0977Q159.521 22.6562 159.521 18.7988Q159.521 14.9414 156.958 12.5Q154.395 10.0586 150.586 10.0586L35.2539 10.0586Q33.5938 10.0586 33.5938 8.34961L33.5938-89.6973Q33.5938-93.457 31.1279-96.0449Q28.6621-98.6328 24.8047-98.6328Q20.9473-98.6328 18.5059-96.0449Q16.0645-93.457 16.0645-89.6973ZM23.0957-20.0195L65.2832-44.3848L97.0215-17.9688L152.393-51.416L145.85-62.2559L97.9492-33.3008L66.3086-59.5703L23.0957-34.5703ZM65.4785-36.6211Q69.2871-36.6211 72.4609-38.501Q75.6348-40.3809 77.5146-43.5547Q79.3945-46.7285 79.3945-50.5371Q79.3945-54.3457 77.5146-57.5195Q75.6348-60.6934 72.4609-62.5732Q69.2871-64.4531 65.4785-64.4531Q61.6211-64.4531 58.4717-62.5732Q55.3223-60.6934 53.4424-57.5195Q51.5625-54.3457 51.5625-50.5371Q51.5625-46.7285 53.4424-43.5547Q55.3223-40.3809 58.4717-38.501Q61.6211-36.6211 65.4785-36.6211ZM97.6562-11.7188Q101.514-11.7188 104.663-13.5986Q107.812-15.4785 109.717-18.6279Q111.621-21.7773 111.621-25.6348Q111.621-29.4434 109.717-32.6172Q107.812-35.791 104.663-37.6709Q101.514-39.5508 97.6562-39.5508Q93.8477-39.5508 90.6738-37.6709Q87.5-35.791 85.6201-32.6172Q83.7402-29.4434 83.7402-25.6348Q83.7402-21.7773 85.6201-18.6279Q87.5-15.4785 90.6738-13.5986Q93.8477-11.7188 97.6562-11.7188ZM144.922-40.8691Q148.779-40.8691 151.929-42.749Q155.078-44.6289 156.958-47.7783Q158.838-50.9277 158.838-54.7852Q158.838-58.6426 156.958-61.8164Q155.078-64.9902 151.929-66.8701Q148.779-68.75 144.922-68.75Q141.113-68.75 137.939-66.8701Q134.766-64.9902 132.886-61.8164Q131.006-58.6426 131.006-54.7852Q131.006-50.9277 132.886-47.7783Q134.766-44.6289 137.939-42.749Q141.113-40.8691 144.922-40.8691Z"/>
  </g>
  <g id="Bold-L" transform="matrix(1 0 0 1 2253.67 1556)">
   <path d="M16.0645 20.4102Q16.0645 22.9492 17.627 24.5117Q19.1895 26.0742 21.7285 26.0742L149.219 26.0742Q152.295 26.0742 154.419 24.0479Q156.543 22.0215 156.543 18.8965Q156.543 15.7227 154.419 13.6963Q152.295 11.6699 149.219 11.6699L32.1777 11.6699Q30.5176 11.6699 30.5176 10.0098L30.5176-89.4043Q30.5176-92.4316 28.4912-94.5801Q26.4648-96.7285 23.291-96.7285Q20.1172-96.7285 18.0908-94.5801Q16.0645-92.4316 16.0645-89.4043ZM22.5586-20.2637L64.3066-44.4336L95.2637-18.3105L149.268-51.0254L143.75-60.0586L96.0449-31.1035L65.2344-57.1289L22.5586-32.4219ZM64.2578-36.5234Q67.7246-36.5234 70.6299-38.2568Q73.5352-39.9902 75.2686-42.8711Q77.002-45.752 77.002-49.2676Q77.002-52.7832 75.2686-55.6641Q73.5352-58.5449 70.6299-60.2783Q67.7246-62.0117 64.2578-62.0117Q60.6934-62.0117 57.8125-60.2783Q54.9316-58.5449 53.1982-55.6641Q51.4648-52.7832 51.4648-49.2676Q51.4648-45.752 53.1982-42.8711Q54.9316-39.9902 57.8125-38.2568Q60.6934-36.5234 64.2578-36.5234ZM95.6055-12.0117Q99.1211-12.0117 102.026-13.7451Q104.932-15.4785 106.641-18.3594Q108.35-21.2402 108.35-24.7559Q108.35-28.2715 106.641-31.1768Q104.932-34.082 102.026-35.791Q99.1211-37.5 95.6055-37.5Q92.0898-37.5 89.209-35.791Q86.3281-34.082 84.5947-31.1768Q82.8613-28.2715 82.8613-24.7559Q82.8613-21.2402 84.5947-18.3594Q86.3281-15.4785 89.209-13.7451Q92.0898-12.0117 95.6055-12.0117ZM142.92-41.2109Q146.436-41.2109 149.316-42.9443Q152.197-44.6777 153.931-47.5586Q155.664-50.4395 155.664-53.9551Q155.664-57.4707 153.931-60.376Q152.197-63.2812 149.316-64.9902Q146.436-66.6992 142.92-66.6992Q139.404-66.6992 136.499-64.9902Q133.594-63.2812 131.885-60.376Q130.176-57.4707 130.176-53.9551Q130.176-50.4395 131.885-47.5586Q133.594-44.6777 136.499-42.9443Q139.404-41.2109 142.92-41.2109Z"/>
  </g>
  <g id="Semibold-L" transform="matrix(1 0 0 1 1957.99 1556)">
   <path d="M16.0645 19.8242Q16.0645 22.168 17.5049 23.6084Q18.9453 25.0488 21.3379 25.0488L148.242 25.0488Q150.83 25.0488 152.661 23.3154Q154.492 21.582 154.492 18.8965Q154.492 16.2598 152.661 14.502Q150.83 12.7441 148.242 12.7441L30.0293 12.7441Q28.418 12.7441 28.418 11.1328L28.418-89.1602Q28.418-91.748 26.6846-93.5791Q24.9512-95.4102 22.2656-95.4102Q19.5312-95.4102 17.7979-93.5791Q16.0645-91.748 16.0645-89.1602ZM22.168-20.459L63.6719-44.4824L94.043-18.5059L147.119-50.7812L142.334-58.5449L94.6777-29.541L64.4531-55.3711L22.168-30.957ZM63.3789-36.4746Q66.6504-36.4746 69.3604-38.0615Q72.0703-39.6484 73.6816-42.3828Q75.293-45.1172 75.293-48.3398Q75.293-51.6602 73.6816-54.3701Q72.0703-57.0801 69.3604-58.6914Q66.6504-60.3027 63.3789-60.3027Q60.0586-60.3027 57.373-58.6914Q54.6875-57.0801 53.0518-54.3701Q51.416-51.6602 51.416-48.3398Q51.416-45.1172 53.0518-42.3828Q54.6875-39.6484 57.373-38.0615Q60.0586-36.4746 63.3789-36.4746ZM94.1895-12.207Q97.4609-12.207 100.171-13.8184Q102.881-15.4297 104.492-18.1396Q106.104-20.8496 106.104-24.1699Q106.104-27.4414 104.492-30.1514Q102.881-32.8613 100.171-34.4727Q97.4609-36.084 94.1895-36.084Q90.8691-36.084 88.1836-34.4727Q85.498-32.8613 83.8867-30.1514Q82.2754-27.4414 82.2754-24.1699Q82.2754-20.8496 83.8867-18.1396Q85.498-15.4297 88.1836-13.8184Q90.8691-12.207 94.1895-12.207ZM141.504-41.4062Q144.824-41.4062 147.51-43.042Q150.195-44.6777 151.807-47.3633Q153.418-50.0488 153.418-53.3691Q153.418-56.6406 151.807-59.3506Q150.195-62.0605 147.51-63.6719Q144.824-65.2832 141.504-65.2832Q138.232-65.2832 135.522-63.6719Q132.812-62.0605 131.201-59.3506Q129.59-56.6406 129.59-53.3691Q129.59-50.0488 131.201-47.3633Q132.812-44.6777 135.522-43.042Q138.232-41.4062 141.504-41.4062Z"/>
  </g>
  <g id="Medium-L" transform="matrix(1 0 0 1 1662.06 1556)">
   <path d="M16.0645 19.3359Q16.0645 21.582 17.4316 22.9492Q18.7988 24.3164 20.9961 24.3164L147.51 24.3164Q149.707 24.3164 151.318 22.7783Q152.93 21.2402 152.93 18.9453Q152.93 16.6504 151.318 15.1367Q149.707 13.623 147.51 13.623L28.418 13.623Q26.8066 13.623 26.8066 11.9629L26.8066-89.0137Q26.8066-91.2109 25.293-92.8223Q23.7793-94.4336 21.4355-94.4336Q19.1406-94.4336 17.6025-92.8223Q16.0645-91.2109 16.0645-89.0137ZM21.9238-20.5566L63.1348-44.4824L93.1152-18.7012L145.508-50.5371L141.211-57.4219L93.6523-28.418L63.8672-54.1016L21.9238-29.834ZM62.6953-36.377Q65.8203-36.377 68.4082-37.915Q70.9961-39.4531 72.5098-42.0166Q74.0234-44.5801 74.0234-47.7051Q74.0234-50.7812 72.5098-53.3691Q70.9961-55.957 68.4082-57.4707Q65.8203-58.9844 62.6953-58.9844Q59.5703-58.9844 57.0068-57.4707Q54.4434-55.957 52.9053-53.3691Q51.3672-50.7812 51.3672-47.7051Q51.3672-44.5801 52.9053-42.0166Q54.4434-39.4531 57.0068-37.915Q59.5703-36.377 62.6953-36.377ZM93.1152-12.4023Q96.1914-12.4023 98.7793-13.916Q101.367-15.4297 102.881-18.0176Q104.395-20.6055 104.395-23.6816Q104.395-26.8555 102.881-29.3945Q101.367-31.9336 98.7793-33.4717Q96.1914-35.0098 93.1152-35.0098Q89.9414-35.0098 87.4023-33.4717Q84.8633-31.9336 83.3252-29.3945Q81.7871-26.8555 81.7871-23.6816Q81.7871-20.6055 83.3252-18.0176Q84.8633-15.4297 87.4023-13.916Q89.9414-12.4023 93.1152-12.4023ZM140.43-41.6016Q143.604-41.6016 146.143-43.1396Q148.682-44.6777 150.22-47.2168Q151.758-49.7559 151.758-52.9297Q151.758-56.0059 150.22-58.5938Q148.682-61.1816 146.143-62.6953Q143.604-64.209 140.43-64.209Q137.354-64.209 134.766-62.6953Q132.178-61.1816 130.664-58.5938Q129.15-56.0059 129.15-52.9297Q129.15-49.7559 130.664-47.2168Q132.178-44.6777 134.766-43.1396Q137.354-41.6016 140.43-41.6016Z"/>
  </g>
  <g id="Regular-L" transform="matrix(1 0 0 1 1366.37 1556)">
   <path d="M16.0645 18.75Q16.0645 20.8008 17.3096 22.0459Q18.5547 23.291 20.6055 23.291L146.533 23.291Q148.291 23.291 149.585 22.0459Q150.879 20.8008 150.879 18.9941Q150.879 17.1875 149.585 15.9424Q148.291 14.6973 146.533 14.6973L26.3184 14.6973Q24.707 14.6973 24.707 13.0859L24.707-88.8184Q24.707-90.5273 23.4863-91.8457Q22.2656-93.1641 20.4102-93.1641Q18.5547-93.1641 17.3096-91.8457Q16.0645-90.5273 16.0645-88.8184ZM21.5332-20.752L62.5-44.5312L91.8945-18.8965L143.359-50.293L139.795-55.9082L92.334-26.9043L63.0859-52.3926L21.5332-28.3691ZM61.8652-36.3281Q64.7461-36.3281 67.1387-37.7441Q69.5312-39.1602 70.9473-41.5527Q72.3633-43.9453 72.3633-46.8262Q72.3633-49.707 70.9473-52.0996Q69.5312-54.4922 67.1387-55.9082Q64.7461-57.3242 61.8652-57.3242Q58.9355-57.3242 56.5674-55.9082Q54.1992-54.4922 52.7588-52.0996Q51.3184-49.707 51.3184-46.8262Q51.3184-43.9453 52.7588-41.5527Q54.1992-39.1602 56.5674-37.7441Q58.9355-36.3281 61.8652-36.3281ZM91.6992-12.5977Q94.5801-12.5977 96.9727-14.0137Q99.3652-15.4297 100.781-17.8223Q102.197-20.2148 102.197-23.0957Q102.197-26.0254 100.781-28.3936Q99.3652-30.7617 96.9727-32.1777Q94.5801-33.5938 91.6992-33.5938Q88.7695-33.5938 86.4014-32.1777Q84.0332-30.7617 82.6172-28.3936Q81.2012-26.0254 81.2012-23.0957Q81.2012-20.2148 82.6172-17.8223Q84.0332-15.4297 86.4014-14.0137Q88.7695-12.5977 91.6992-12.5977ZM139.062-41.7969Q141.992-41.7969 144.36-43.2373Q146.729-44.6777 148.145-47.0459Q149.561-49.4141 149.561-52.3438Q149.561-55.2246 148.145-57.6172Q146.729-60.0098 144.36-61.4258Q141.992-62.8418 139.062-62.8418Q136.182-62.8418 133.789-61.4258Q131.396-60.0098 129.98-57.6172Q128.564-55.2246 128.564-52.3438Q128.564-49.4141 129.98-47.0459Q131.396-44.6777 133.789-43.2373Q136.182-41.7969 139.062-41.7969Z"/>
  </g>
  <g id="Light-L" transform="matrix(1 0 0 1 1070.13 1556)">
   <path d="M16.0645 19.1895Q16.0645 20.9961 17.1143 22.0459Q18.1641 23.0957 19.9707 23.0957L146.631 23.0957Q147.949 23.0957 148.95 22.1924Q149.951 21.2891 149.951 19.8242Q149.951 18.4082 148.95 17.5049Q147.949 16.6016 146.631 16.6016L24.0723 16.6016Q22.6562 16.6016 22.6562 15.2344L22.6562-89.8438Q22.6562-91.1133 21.7529-92.1631Q20.8496-93.2129 19.4336-93.2129Q17.9199-93.2129 16.9922-92.1631Q16.0645-91.1133 16.0645-89.8438ZM19.9219-20.8008L61.5723-44.9707L91.2109-18.5547L142.188-50.5859L139.16-55.0781L91.6016-25.0977L62.1094-51.3672L19.9219-26.9531ZM61.1328-37.1094Q63.7695-37.1094 65.9668-38.4033Q68.1641-39.6973 69.458-41.8945Q70.752-44.0918 70.752-46.7285Q70.752-49.3652 69.458-51.5381Q68.1641-53.7109 65.9668-55.0049Q63.7695-56.2988 61.1328-56.2988Q58.4961-56.2988 56.3232-55.0049Q54.1504-53.7109 52.8564-51.5381Q51.5625-49.3652 51.5625-46.7285Q51.5625-44.0918 52.8564-41.8945Q54.1504-39.6973 56.3232-38.4033Q58.4961-37.1094 61.1328-37.1094ZM91.1621-12.5977Q93.7988-12.5977 95.9717-13.8916Q98.1445-15.1855 99.4385-17.3584Q100.732-19.5312 100.732-22.168Q100.732-24.8535 99.4385-27.002Q98.1445-29.1504 95.9717-30.4443Q93.7988-31.7383 91.1621-31.7383Q88.4766-31.7383 86.3037-30.4443Q84.1309-29.1504 82.8369-27.002Q81.543-24.8535 81.543-22.168Q81.543-19.5312 82.8369-17.3584Q84.1309-15.1855 86.3037-13.8916Q88.4766-12.5977 91.1621-12.5977ZM138.33-42.5293Q141.016-42.5293 143.164-43.8477Q145.312-45.166 146.606-47.3389Q147.9-49.5117 147.9-52.1484Q147.9-54.7852 146.606-56.958Q145.312-59.1309 143.164-60.4248Q141.016-61.7188 138.33-61.7188Q135.693-61.7188 133.521-60.4248Q131.348-59.1309 130.054-56.958Q128.76-54.7852 128.76-52.1484Q128.76-49.5117 130.054-47.3389Q131.348-45.166 133.521-43.8477Q135.693-42.5293 138.33-42.5293Z"/>
  </g>
  <g id="Thin-L" transform="matrix(1 0 0 1 774 1556)">
   <path d="M16.0645 19.8242Q16.0645 21.2402 16.8701 22.0459Q17.6758 22.8516 19.0918 22.8516L146.777 22.8516Q147.559 22.8516 148.169 22.3633Q148.779 21.875 148.779 20.9473Q148.779 20.0195 148.169 19.5557Q147.559 19.0918 146.777 19.0918L21.0449 19.0918Q20.0195 19.0918 20.0195 18.0664L20.0195-91.2109Q20.0195-91.9434 19.5312-92.5781Q19.043-93.2129 18.0664-93.2129Q17.0898-93.2129 16.5771-92.5781Q16.0645-91.9434 16.0645-91.2109ZM17.8223-20.8496L60.3516-45.5078L90.2832-18.0664L140.674-50.9277L138.281-53.9551L90.625-22.7051L60.791-49.9512L17.8223-25.1465ZM60.2051-38.1836Q62.5488-38.1836 64.4287-39.3311Q66.3086-40.4785 67.4561-42.3584Q68.6035-44.2383 68.6035-46.582Q68.6035-48.877 67.4561-50.7812Q66.3086-52.6855 64.4287-53.8086Q62.5488-54.9316 60.2051-54.9316Q57.9102-54.9316 56.0303-53.8086Q54.1504-52.6855 53.0029-50.7812Q51.8555-48.877 51.8555-46.582Q51.8555-44.2383 53.0029-42.3584Q54.1504-40.4785 56.0303-39.3311Q57.9102-38.1836 60.2051-38.1836ZM90.3809-12.5977Q92.7246-12.5977 94.6289-13.7207Q96.5332-14.8438 97.6318-16.748Q98.7305-18.6523 98.7305-20.9473Q98.7305-23.2422 97.6318-25.1465Q96.5332-27.0508 94.6289-28.1738Q92.7246-29.2969 90.3809-29.2969Q88.0859-29.2969 86.2061-28.1738Q84.3262-27.0508 83.1787-25.1465Q82.0312-23.2422 82.0312-20.9473Q82.0312-18.6523 83.1787-16.748Q84.3262-14.8438 86.2061-13.7207Q88.0859-12.5977 90.3809-12.5977ZM137.354-43.5059Q139.648-43.5059 141.553-44.6533Q143.457-45.8008 144.604-47.7051Q145.752-49.6094 145.752-51.9043Q145.752-54.1992 144.604-56.1035Q143.457-58.0078 141.553-59.1309Q139.648-60.2539 137.354-60.2539Q135.059-60.2539 133.154-59.1309Q131.25-58.0078 130.127-56.1035Q129.004-54.1992 129.004-51.9043Q129.004-49.6094 130.127-47.7051Q131.25-45.8008 133.154-44.6533Q135.059-43.5059 137.354-43.5059Z"/>
  </g>
  <g id="Ultralight-L" transform="matrix(1 0 0 1 477.607 1556)">
   <path d="M16.0645 20.1172Q16.0645 21.3379 16.748 22.0459Q17.4316 22.7539 18.6523 22.7539L146.875 22.7539Q147.314 22.7539 147.729 22.4854Q148.145 22.2168 148.145 21.5332Q148.145 20.8496 147.729 20.6055Q147.314 20.3613 146.875 20.3613L19.5312 20.3613Q18.6035 20.3613 18.6035 19.4824L18.6035-91.8945Q18.6035-92.334 18.335-92.7979Q18.0664-93.2617 17.4316-93.2617Q16.6992-93.2617 16.3818-92.7979Q16.0645-92.334 16.0645-91.8945ZM16.748-20.8984L59.7168-45.8008L89.7949-17.8711L139.844-51.123L137.842-53.418L90.0879-21.4844L60.1562-49.2676L16.748-24.1699ZM59.7168-38.7207Q61.8652-38.7207 63.623-39.7705Q65.3809-40.8203 66.4307-42.5781Q67.4805-44.3359 67.4805-46.4844Q67.4805-48.6328 66.4307-50.3906Q65.3809-52.1484 63.623-53.1982Q61.8652-54.248 59.7168-54.248Q57.6172-54.248 55.8594-53.1982Q54.1016-52.1484 53.0518-50.3906Q52.002-48.6328 52.002-46.4844Q52.002-44.3359 53.0518-42.5781Q54.1016-40.8203 55.8594-39.7705Q57.6172-38.7207 59.7168-38.7207ZM90.0391-12.5977Q92.1875-12.5977 93.9453-13.6475Q95.7031-14.6973 96.7285-16.4551Q97.7539-18.2129 97.7539-20.3125Q97.7539-22.4609 96.7285-24.2188Q95.7031-25.9766 93.9453-27.0264Q92.1875-28.0762 90.0391-28.0762Q87.8906-28.0762 86.1328-27.0264Q84.375-25.9766 83.3252-24.2188Q82.2754-22.4609 82.2754-20.3125Q82.2754-18.2129 83.3252-16.4551Q84.375-14.6973 86.1328-13.6475Q87.8906-12.5977 90.0391-12.5977ZM136.816-44.043Q139.014-44.043 140.771-45.0928Q142.529-46.1426 143.579-47.9004Q144.629-49.6582 144.629-51.8066Q144.629-53.9062 143.579-55.6641Q142.529-57.4219 140.771-58.4717Q139.014-59.5215 136.816-59.5215Q134.717-59.5215 132.959-58.4717Q131.201-57.4219 130.151-55.6641Q129.102-53.9062 129.102-51.8066Q129.102-49.6582 130.151-47.9004Q131.201-46.1426 132.959-45.0928Q134.717-44.043 136.816-44.043Z"/>
  </g>
  <g id="Black-M" transform="matrix(1 0 0 1 2863.33 1126)">
   <path d="M12.4512 10.0098Q12.4512 12.4512 13.9648 13.9648Q15.4785 15.4785 17.9688 15.4785L118.799 15.4785Q122.559 15.4785 125.122 13.0859Q127.686 10.6934 127.686 6.83594Q127.686 2.92969 125.122 0.537109Q122.559-1.85547 118.799-1.85547L31.0547-1.85547Q29.7852-1.85547 29.7852-3.125L29.7852-78.1738Q29.7852-81.9824 27.3926-84.5459Q25-87.1094 21.1426-87.1094Q17.2363-87.1094 14.8438-84.5459Q12.4512-81.9824 12.4512-78.1738ZM18.1641-23.0469L51.6602-42.3828L77.5391-21.2891L122.266-48.4375L115.869-59.082L78.5156-36.3281L52.7344-57.373L18.1641-37.3535ZM52.3438-36.7188Q55.6641-36.7188 58.4473-38.3789Q61.2305-40.0391 62.8906-42.7979Q64.5508-45.5566 64.5508-48.9258Q64.5508-52.2949 62.8906-55.0537Q61.2305-57.8125 58.4473-59.4727Q55.6641-61.1328 52.3438-61.1328Q48.9746-61.1328 46.1914-59.4727Q43.4082-57.8125 41.7725-55.0537Q40.1367-52.2949 40.1367-48.9258Q40.1367-45.5566 41.7725-42.7979Q43.4082-40.0391 46.1914-38.3789Q48.9746-36.7188 52.3438-36.7188ZM78.5156-16.5527Q81.8848-16.5527 84.6436-18.1885Q87.4023-19.8242 89.0625-22.6074Q90.7227-25.3906 90.7227-28.7598Q90.7227-32.0801 89.0625-34.8633Q87.4023-37.6465 84.6436-39.3066Q81.8848-40.9668 78.5156-40.9668Q75.1465-40.9668 72.3877-39.3066Q69.6289-37.6465 67.9688-34.8633Q66.3086-32.0801 66.3086-28.7598Q66.3086-25.3906 67.9688-22.6074Q69.6289-19.8242 72.3877-18.1885Q75.1465-16.5527 78.5156-16.5527ZM115.039-39.3555Q118.359-39.3555 121.143-41.0156Q123.926-42.6758 125.562-45.459Q127.197-48.2422 127.197-51.5625Q127.197-54.9316 125.562-57.7148Q123.926-60.498 121.143-62.1338Q118.359-63.7695 115.039-63.7695Q111.67-63.7695 108.887-62.1338Q106.104-60.498 104.468-57.7148Q102.832-54.9316 102.832-51.5625Q102.832-48.2422 104.468-45.459Q106.104-42.6758 108.887-41.0156Q111.67-39.3555 115.039-39.3555Z"/>
  </g>
  <g id="Heavy-M" transform="matrix(1 0 0 1 2567.84 1126)">
   <path d="M12.4512 9.13086Q12.4512 11.4258 13.8672 12.8418Q15.2832 14.2578 17.5781 14.2578L117.529 14.2578Q120.801 14.2578 123.022 12.1582Q125.244 10.0586 125.244 6.68945Q125.244 3.32031 123.022 1.24512Q120.801-0.830078 117.529-0.830078L28.8574-0.830078Q27.5391-0.830078 27.5391-2.14844L27.5391-77.6855Q27.5391-80.957 25.4395-83.2031Q23.3398-85.4492 20.0195-85.4492Q16.6504-85.4492 14.5508-83.2031Q12.4512-80.957 12.4512-77.6855ZM18.0176-23.291L51.0254-42.334L76.123-21.6309L119.775-48.0469L114.16-57.3242L76.9531-34.8145L51.9531-55.4199L18.0176-35.791ZM51.416-36.4746Q54.4922-36.4746 57.0801-38.0127Q59.668-39.5508 61.2305-42.1143Q62.793-44.6777 62.793-47.8516Q62.793-50.9766 61.2305-53.54Q59.668-56.1035 57.0801-57.6416Q54.4922-59.1797 51.416-59.1797Q48.2422-59.1797 45.6543-57.6416Q43.0664-56.1035 41.5527-53.54Q40.0391-50.9766 40.0391-47.8516Q40.0391-44.6777 41.5527-42.1143Q43.0664-39.5508 45.6543-38.0127Q48.2422-36.4746 51.416-36.4746ZM76.8555-16.7969Q79.9805-16.7969 82.5439-18.335Q85.1074-19.873 86.6455-22.4609Q88.1836-25.0488 88.1836-28.1738Q88.1836-31.2988 86.6455-33.8867Q85.1074-36.4746 82.5439-38.0127Q79.9805-39.5508 76.8555-39.5508Q73.6816-39.5508 71.1182-38.0127Q68.5547-36.4746 67.0166-33.8867Q65.4785-31.2988 65.4785-28.1738Q65.4785-25.0488 67.0166-22.4609Q68.5547-19.873 71.1182-18.335Q73.6816-16.7969 76.8555-16.7969ZM113.428-39.502Q116.504-39.502 119.116-41.04Q121.729-42.5781 123.242-45.166Q124.756-47.7539 124.756-50.8789Q124.756-54.0039 123.242-56.5918Q121.729-59.1797 119.116-60.7178Q116.504-62.2559 113.428-62.2559Q110.303-62.2559 107.69-60.7178Q105.078-59.1797 103.564-56.5918Q102.051-54.0039 102.051-50.8789Q102.051-47.7539 103.564-45.166Q105.078-42.5781 107.69-41.04Q110.303-39.502 113.428-39.502Z"/>
  </g>
  <g id="Bold-M" transform="matrix(1 0 0 1 2272.47 1126)">
   <path d="M12.4512 8.20312Q12.4512 10.3027 13.7451 11.5723Q15.0391 12.8418 17.1875 12.8418L116.162 12.8418Q118.848 12.8418 120.703 11.084Q122.559 9.32617 122.559 6.5918Q122.559 3.80859 120.703 2.05078Q118.848 0.292969 116.162 0.292969L26.3672 0.292969Q25.0488 0.292969 25.0488-1.07422L25.0488-77.1973Q25.0488-79.8828 23.291-81.7383Q21.5332-83.5938 18.7988-83.5938Q16.0156-83.5938 14.2334-81.7383Q12.4512-79.8828 12.4512-77.1973ZM17.8711-23.5352L50.3418-42.2852L74.5605-22.0703L117.041-47.6074L112.305-55.4199L75.2441-33.1055L51.123-53.2715L17.8711-34.0332ZM50.3418-36.1816Q53.2227-36.1816 55.5908-37.5977Q57.959-39.0137 59.375-41.3818Q60.791-43.75 60.791-46.6309Q60.791-49.5117 59.375-51.8799Q57.959-54.248 55.5908-55.6396Q53.2227-57.0312 50.3418-57.0312Q47.4609-57.0312 45.0928-55.6396Q42.7246-54.248 41.3086-51.8799Q39.8926-49.5117 39.8926-46.6309Q39.8926-43.75 41.3086-41.3818Q42.7246-39.0137 45.0928-37.5977Q47.4609-36.1816 50.3418-36.1816ZM74.9512-17.1387Q77.832-17.1387 80.2002-18.5303Q82.5684-19.9219 83.9844-22.3145Q85.4004-24.707 85.4004-27.5879Q85.4004-30.4199 83.9844-32.8125Q82.5684-35.2051 80.2002-36.5967Q77.832-37.9883 74.9512-37.9883Q72.0703-37.9883 69.7021-36.5967Q67.334-35.2051 65.918-32.8125Q64.502-30.4199 64.502-27.5879Q64.502-24.707 65.918-22.3145Q67.334-19.9219 69.7021-18.5303Q72.0703-17.1387 74.9512-17.1387ZM111.621-39.6484Q114.502-39.6484 116.87-41.0645Q119.238-42.4805 120.654-44.8486Q122.07-47.2168 122.07-50.0977Q122.07-52.9785 120.654-55.3467Q119.238-57.7148 116.87-59.1309Q114.502-60.5469 111.621-60.5469Q108.74-60.5469 106.372-59.1309Q104.004-57.7148 102.588-55.3467Q101.172-52.9785 101.172-50.0977Q101.172-47.2168 102.588-44.8486Q104.004-42.4805 106.372-41.0645Q108.74-39.6484 111.621-39.6484Z"/>
  </g>
  <g id="Semibold-M" transform="matrix(1 0 0 1 1976.69 1126)">
   <path d="M12.4512 7.51953Q12.4512 9.47266 13.6719 10.6689Q14.8926 11.8652 16.8457 11.8652L115.186 11.8652Q117.48 11.8652 119.092 10.3516Q120.703 8.83789 120.703 6.44531Q120.703 4.15039 119.092 2.58789Q117.48 1.02539 115.186 1.02539L24.6582 1.02539Q23.3398 1.02539 23.3398-0.292969L23.3398-76.8066Q23.3398-79.1016 21.7773-80.7129Q20.2148-82.3242 17.9199-82.3242Q15.5273-82.3242 13.9893-80.7129Q12.4512-79.1016 12.4512-76.8066ZM17.7734-23.7305L49.8047-42.2363L73.4863-22.3145L115.088-47.2656L110.986-54.0527L74.0723-31.8848L50.4883-51.7578L17.7734-32.8125ZM49.6094-35.9375Q52.2949-35.9375 54.541-37.2803Q56.7871-38.623 58.1055-40.8447Q59.4238-43.0664 59.4238-45.752Q59.4238-48.4863 58.1055-50.708Q56.7871-52.9297 54.541-54.2236Q52.2949-55.5176 49.6094-55.5176Q46.9238-55.5176 44.6777-54.2236Q42.4316-52.9297 41.1133-50.708Q39.7949-48.4863 39.7949-45.752Q39.7949-43.0664 41.1133-40.8447Q42.4316-38.623 44.6777-37.2803Q46.9238-35.9375 49.6094-35.9375ZM73.6328-17.334Q76.3672-17.334 78.5889-18.6523Q80.8105-19.9707 82.1289-22.1924Q83.4473-24.4141 83.4473-27.1484Q83.4473-29.834 82.1289-32.0557Q80.8105-34.2773 78.5889-35.5957Q76.3672-36.9141 73.6328-36.9141Q70.9473-36.9141 68.7256-35.5957Q66.5039-34.2773 65.1855-32.0557Q63.8672-29.834 63.8672-27.1484Q63.8672-24.4141 65.1855-22.1924Q66.5039-19.9707 68.7256-18.6523Q70.9473-17.334 73.6328-17.334ZM110.4-39.7461Q113.086-39.7461 115.308-41.0645Q117.529-42.3828 118.848-44.6045Q120.166-46.8262 120.166-49.5117Q120.166-52.2461 118.848-54.4678Q117.529-56.6895 115.308-58.0078Q113.086-59.3262 110.4-59.3262Q107.666-59.3262 105.444-58.0078Q103.223-56.6895 101.904-54.4678Q100.586-52.2461 100.586-49.5117Q100.586-46.8262 101.904-44.6045Q103.223-42.3828 105.444-41.0645Q107.666-39.7461 110.4-39.7461Z"/>
  </g>
  <g id="Medium-M" transform="matrix(1 0 0 1 1680.69 1126)">
   <path d="M12.4512 6.98242Q12.4512 8.88672 13.5986 10.0098Q14.7461 11.1328 16.6504 11.1328L114.453 11.1328Q116.455 11.1328 117.871 9.79004Q119.287 8.44727 119.287 6.39648Q119.287 4.39453 117.871 3.00293Q116.455 1.61133 114.453 1.61133L23.3887 1.61133Q22.0215 1.61133 22.0215 0.292969L22.0215-76.5137Q22.0215-78.5156 20.6543-79.9316Q19.2871-81.3477 17.2363-81.3477Q15.1855-81.3477 13.8184-79.9316Q12.4512-78.5156 12.4512-76.5137ZM17.6758-23.8281L49.4629-42.2363L72.6562-22.5098L113.672-47.0215L109.961-53.0273L73.1445-31.0059L50.0488-50.5859L17.6758-31.8848ZM49.0723-35.791Q51.6113-35.791 53.7354-37.0605Q55.8594-38.3301 57.1289-40.4297Q58.3984-42.5293 58.3984-45.1172Q58.3984-47.7051 57.1289-49.8047Q55.8594-51.9043 53.7354-53.1494Q51.6113-54.3945 49.0723-54.3945Q46.4844-54.3945 44.3604-53.1494Q42.2363-51.9043 40.9912-49.8047Q39.7461-47.7051 39.7461-45.1172Q39.7461-42.5293 40.9912-40.4297Q42.2363-38.3301 44.3604-37.0605Q46.4844-35.791 49.0723-35.791ZM72.6562-17.4805Q75.2441-17.4805 77.3682-18.7256Q79.4922-19.9707 80.7129-22.0947Q81.9336-24.2188 81.9336-26.8066Q81.9336-29.3457 80.7129-31.4697Q79.4922-33.5938 77.3682-34.8389Q75.2441-36.084 72.6562-36.084Q70.1172-36.084 67.9932-34.8389Q65.8691-33.5938 64.5996-31.4697Q63.3301-29.3457 63.3301-26.8066Q63.3301-24.2188 64.5996-22.0947Q65.8691-19.9707 67.9932-18.7256Q70.1172-17.4805 72.6562-17.4805ZM109.424-39.7949Q112.012-39.7949 114.136-41.0645Q116.26-42.334 117.505-44.458Q118.75-46.582 118.75-49.1211Q118.75-51.709 117.505-53.833Q116.26-55.957 114.136-57.2021Q112.012-58.4473 109.424-58.4473Q106.885-58.4473 104.761-57.2021Q102.637-55.957 101.367-53.833Q100.098-51.709 100.098-49.1211Q100.098-46.582 101.367-44.458Q102.637-42.334 104.761-41.0645Q106.885-39.7949 109.424-39.7949Z"/>
  </g>
  <g id="Regular-M" transform="matrix(1 0 0 1 1384.9 1126)">
   <path d="M12.4512 6.34766Q12.4512 8.10547 13.5254 9.15527Q14.5996 10.2051 16.3574 10.2051L113.477 10.2051Q115.088 10.2051 116.26 9.08203Q117.432 7.95898 117.432 6.29883Q117.432 4.6875 116.26 3.54004Q115.088 2.39258 113.477 2.39258L21.6797 2.39258Q20.3125 2.39258 20.3125 1.02539L20.3125-76.1719Q20.3125-77.7344 19.165-78.9062Q18.0176-80.0781 16.4062-80.0781Q14.7461-80.0781 13.5986-78.9062Q12.4512-77.7344 12.4512-76.1719ZM17.5781-24.0234L48.9746-42.1875L71.582-22.8027L111.768-46.7285L108.691-51.709L71.9727-29.834L49.4629-49.1211L17.5781-30.7129ZM48.3398-35.5957Q50.7324-35.5957 52.71-36.7676Q54.6875-37.9395 55.8594-39.917Q57.0312-41.8945 57.0312-44.2871Q57.0312-46.6797 55.8594-48.6572Q54.6875-50.6348 52.71-51.7822Q50.7324-52.9297 48.3398-52.9297Q45.9473-52.9297 43.9697-51.7822Q41.9922-50.6348 40.8203-48.6572Q39.6484-46.6797 39.6484-44.2871Q39.6484-41.8945 40.8203-39.917Q41.9922-37.9395 43.9697-36.7676Q45.9473-35.5957 48.3398-35.5957ZM71.3867-17.6758Q73.7793-17.6758 75.7568-18.8477Q77.7344-20.0195 78.8818-21.9971Q80.0293-23.9746 80.0293-26.3672Q80.0293-28.7598 78.8818-30.7373Q77.7344-32.7148 75.7568-33.8623Q73.7793-35.0098 71.3867-35.0098Q68.9941-35.0098 67.0166-33.8623Q65.0391-32.7148 63.8672-30.7373Q62.6953-28.7598 62.6953-26.3672Q62.6953-23.9746 63.8672-21.9971Q65.0391-20.0195 67.0166-18.8477Q68.9941-17.6758 71.3867-17.6758ZM108.203-39.8926Q110.596-39.8926 112.573-41.0645Q114.551-42.2363 115.723-44.2139Q116.895-46.1914 116.895-48.584Q116.895-50.9766 115.723-52.9541Q114.551-54.9316 112.573-56.1035Q110.596-57.2754 108.203-57.2754Q105.811-57.2754 103.833-56.1035Q101.855-54.9316 100.684-52.9541Q99.5117-50.9766 99.5117-48.584Q99.5117-46.1914 100.684-44.2139Q101.855-42.2363 103.833-41.0645Q105.811-39.8926 108.203-39.8926Z"/>
  </g>
  <g id="Light-M" transform="matrix(1 0 0 1 1088.61 1126)">
   <path d="M12.4512 6.73828Q12.4512 8.25195 13.3545 9.15527Q14.2578 10.0586 15.7715 10.0586L113.574 10.0586Q114.795 10.0586 115.698 9.2041Q116.602 8.34961 116.602 7.08008Q116.602 5.81055 115.698 4.95605Q114.795 4.10156 113.574 4.10156L19.6289 4.10156Q18.5059 4.10156 18.5059 2.92969L18.5059-77.0996Q18.5059-78.2715 17.6514-79.1992Q16.7969-80.127 15.5273-80.127Q14.209-80.127 13.3301-79.1992Q12.4512-78.2715 12.4512-77.0996ZM16.1621-24.0723L48.1445-42.5781L70.9961-22.4609L110.742-46.9727L108.105-50.9766L71.3379-28.2227L48.584-48.1934L16.1621-29.4922ZM47.7051-36.3281Q49.8535-36.3281 51.6602-37.4023Q53.4668-38.4766 54.5166-40.2344Q55.5664-41.9922 55.5664-44.1895Q55.5664-46.3379 54.5166-48.1201Q53.4668-49.9023 51.6602-50.9521Q49.8535-52.002 47.7051-52.002Q45.5566-52.002 43.7744-50.9521Q41.9922-49.9023 40.918-48.1201Q39.8438-46.3379 39.8438-44.1895Q39.8438-41.9922 40.918-40.2344Q41.9922-38.4766 43.7744-37.4023Q45.5566-36.3281 47.7051-36.3281ZM70.8984-17.6758Q73.0469-17.6758 74.8291-18.7256Q76.6113-19.7754 77.6611-21.582Q78.7109-23.3887 78.7109-25.5371Q78.7109-27.6855 77.6611-29.4922Q76.6113-31.2988 74.8291-32.3242Q73.0469-33.3496 70.8984-33.3496Q68.7012-33.3496 66.9189-32.3242Q65.1367-31.2988 64.0869-29.4922Q63.0371-27.6855 63.0371-25.5371Q63.0371-23.3887 64.0869-21.582Q65.1367-19.7754 66.9189-18.7256Q68.7012-17.6758 70.8984-17.6758ZM107.52-40.5762Q109.717-40.5762 111.499-41.626Q113.281-42.6758 114.331-44.458Q115.381-46.2402 115.381-48.4375Q115.381-50.5859 114.331-52.3682Q113.281-54.1504 111.499-55.2246Q109.717-56.2988 107.52-56.2988Q105.371-56.2988 103.589-55.2246Q101.807-54.1504 100.732-52.3682Q99.6582-50.5859 99.6582-48.4375Q99.6582-46.2402 100.732-44.458Q101.807-42.6758 103.589-41.626Q105.371-40.5762 107.52-40.5762Z"/>
  </g>
  <g id="Thin-M" transform="matrix(1 0 0 1 792.433 1126)">
   <path d="M12.4512 7.27539Q12.4512 8.49609 13.1348 9.15527Q13.8184 9.81445 14.9902 9.81445L113.721 9.81445Q114.404 9.81445 114.966 9.35059Q115.527 8.88672 115.527 8.10547Q115.527 7.27539 114.966 6.81152Q114.404 6.34766 113.721 6.34766L16.9922 6.34766Q16.1133 6.34766 16.1133 5.46875L16.1133-78.3203Q16.1133-79.0039 15.625-79.5898Q15.1367-80.1758 14.3555-80.1758Q13.4277-80.1758 12.9395-79.5898Q12.4512-79.0039 12.4512-78.3203ZM14.2578-24.0723L47.0215-43.0664L70.166-22.0703L109.326-47.3145L107.373-50L70.459-26.0254L47.4121-46.9238L14.2578-27.832ZM46.875-37.3047Q48.7305-37.3047 50.2686-38.208Q51.8066-39.1113 52.71-40.6494Q53.6133-42.1875 53.6133-44.043Q53.6133-45.8984 52.71-47.4365Q51.8066-48.9746 50.2686-49.8779Q48.7305-50.7812 46.875-50.7812Q45.0195-50.7812 43.4814-49.8779Q41.9434-48.9746 41.0156-47.4365Q40.0879-45.8984 40.0879-44.043Q40.0879-42.1875 41.0156-40.6494Q41.9434-39.1113 43.4814-38.208Q45.0195-37.3047 46.875-37.3047ZM70.2148-17.6758Q72.0703-17.6758 73.6084-18.5791Q75.1465-19.4824 76.0498-21.0205Q76.9531-22.5586 76.9531-24.4141Q76.9531-26.3184 76.0498-27.8564Q75.1465-29.3945 73.6084-30.2979Q72.0703-31.2012 70.2148-31.2012Q68.3594-31.2012 66.8213-30.2979Q65.2832-29.3945 64.3799-27.8564Q63.4766-26.3184 63.4766-24.4141Q63.4766-22.5586 64.3799-21.0205Q65.2832-19.4824 66.8213-18.5791Q68.3594-17.6758 70.2148-17.6758ZM106.641-41.4551Q108.545-41.4551 110.083-42.3828Q111.621-43.3105 112.524-44.8242Q113.428-46.3379 113.428-48.1934Q113.428-50.0488 112.524-51.5869Q111.621-53.125 110.083-54.0283Q108.545-54.9316 106.641-54.9316Q104.785-54.9316 103.271-54.0283Q101.758-53.125 100.83-51.5869Q99.9023-50.0488 99.9023-48.1934Q99.9023-46.3379 100.83-44.8242Q101.758-43.3105 103.271-42.3828Q104.785-41.4551 106.641-41.4551Z"/>
  </g>
  <g id="Ultralight-M" transform="matrix(1 0 0 1 495.99 1126)">
   <path d="M12.4512 7.56836Q12.4512 8.59375 13.0371 9.15527Q13.623 9.7168 14.5996 9.7168L113.818 9.7168Q114.209 9.7168 114.6 9.44824Q114.99 9.17969 114.99 8.59375Q114.99 8.00781 114.6 7.73926Q114.209 7.4707 113.818 7.4707L15.5762 7.4707Q14.8438 7.4707 14.8438 6.73828L14.8438-78.9551Q14.8438-79.3457 14.5752-79.7852Q14.3066-80.2246 13.7207-80.2246Q13.0859-80.2246 12.7686-79.7852Q12.4512-79.3457 12.4512-78.9551ZM13.3301-24.1211L46.4844-43.3105L69.7754-21.8262L108.643-47.5098L106.982-49.4629L70.0195-24.9512L46.8262-46.2891L13.3301-27.002ZM46.4355-37.793Q48.1445-37.793 49.5605-38.6475Q50.9766-39.502 51.8066-40.8691Q52.6367-42.2363 52.6367-43.9453Q52.6367-45.7031 51.8066-47.0947Q50.9766-48.4863 49.5605-49.3164Q48.1445-50.1465 46.4355-50.1465Q44.7754-50.1465 43.3594-49.3164Q41.9434-48.4863 41.0889-47.0947Q40.2344-45.7031 40.2344-43.9453Q40.2344-42.2363 41.0889-40.8691Q41.9434-39.502 43.3594-38.6475Q44.7754-37.793 46.4355-37.793ZM69.873-17.6758Q71.582-17.6758 72.998-18.5059Q74.4141-19.3359 75.2441-20.752Q76.0742-22.168 76.0742-23.877Q76.0742-25.5859 75.2441-27.002Q74.4141-28.418 72.998-29.248Q71.582-30.0781 69.873-30.0781Q68.1641-30.0781 66.7725-29.248Q65.3809-28.418 64.5264-27.002Q63.6719-25.5859 63.6719-23.877Q63.6719-22.168 64.5264-20.752Q65.3809-19.3359 66.7725-18.5059Q68.1641-17.6758 69.873-17.6758ZM106.201-41.8945Q107.91-41.8945 109.326-42.749Q110.742-43.6035 111.572-44.9951Q112.402-46.3867 112.402-48.0957Q112.402-49.8047 111.572-51.2207Q110.742-52.6367 109.326-53.4668Q107.91-54.2969 106.201-54.2969Q104.492-54.2969 103.101-53.4668Q101.709-52.6367 100.854-51.2207Q100-49.8047 100-48.0957Q100-46.3867 100.854-44.9951Q101.709-43.6035 103.101-42.749Q104.492-41.8945 106.201-41.8945Z"/>
  </g>
  <g id="Black-S" transform="matrix(1 0 0 1 2878.15 696)">
   <path d="M9.76562 0.488281Q9.76562 2.44141 10.9863 3.66211Q12.207 4.88281 14.1602 4.88281L93.457 4.88281Q96.582 4.88281 98.6572 2.92969Q100.732 0.976562 100.732-2.19727Q100.732-5.37109 98.6572-7.32422Q96.582-9.27734 93.457-9.27734L24.9023-9.27734Q23.9258-9.27734 23.9258-10.2539L23.9258-69.0918Q23.9258-72.2168 21.9727-74.292Q20.0195-76.3672 16.8457-76.3672Q13.6719-76.3672 11.7188-74.292Q9.76562-72.2168 9.76562-69.0918ZM14.209-25.6348L40.625-40.8691L61.1328-24.1699L96.4844-45.7031L91.2598-54.3945L61.9629-36.4746L41.5039-53.125L14.209-37.3047ZM41.2598-36.5234Q45.3125-36.5234 48.1689-39.4043Q51.0254-42.2852 51.0254-46.2891Q51.0254-50.3418 48.1689-53.1982Q45.3125-56.0547 41.2598-56.0547Q37.2559-56.0547 34.375-53.1982Q31.4941-50.3418 31.4941-46.2891Q31.4941-42.2852 34.375-39.4043Q37.2559-36.5234 41.2598-36.5234ZM62.0117-20.5078Q66.0645-20.5078 68.9209-23.3887Q71.7773-26.2695 71.7773-30.2734Q71.7773-34.3262 68.9209-37.1826Q66.0645-40.0391 62.0117-40.0391Q58.0078-40.0391 55.127-37.1826Q52.2461-34.3262 52.2461-30.2734Q52.2461-26.2695 55.127-23.3887Q58.0078-20.5078 62.0117-20.5078ZM90.5762-38.4766Q94.6289-38.4766 97.4854-41.3574Q100.342-44.2383 100.342-48.2422Q100.342-52.2949 97.4854-55.1514Q94.6289-58.0078 90.5762-58.0078Q86.5723-58.0078 83.6914-55.1514Q80.8105-52.2949 80.8105-48.2422Q80.8105-44.2383 83.6914-41.3574Q86.5723-38.4766 90.5762-38.4766Z"/>
  </g>
  <g id="Heavy-S" transform="matrix(1 0 0 1 2582.42 696)">
   <path d="M9.76562-0.292969Q9.76562 1.5625 10.9131 2.70996Q12.0605 3.85742 13.916 3.85742L92.3828 3.85742Q95.1172 3.85742 96.9482 2.09961Q98.7793 0.341797 98.7793-2.39258Q98.7793-5.17578 96.9482-6.90918Q95.1172-8.64258 92.3828-8.64258L23.291-8.64258Q22.2656-8.64258 22.2656-9.66797L22.2656-68.5547Q22.2656-71.2891 20.5322-73.1201Q18.7988-74.9512 16.0156-74.9512Q13.2324-74.9512 11.499-73.1201Q9.76562-71.2891 9.76562-68.5547ZM14.2578-25.8301L40.1855-40.7715L60.0098-24.5117L94.4824-45.3125L89.8926-53.0273L60.7422-35.3516L40.9668-51.5625L14.2578-36.1328ZM40.5273-36.1816Q44.3359-36.1816 47.0215-38.8916Q49.707-41.6016 49.707-45.3613Q49.707-49.1699 47.0215-51.8555Q44.3359-54.541 40.5273-54.541Q36.7676-54.541 34.082-51.8555Q31.3965-49.1699 31.3965-45.3613Q31.3965-41.6016 34.082-38.8916Q36.7676-36.1816 40.5273-36.1816ZM60.6445-20.752Q64.4531-20.752 67.1143-23.4375Q69.7754-26.123 69.7754-29.8828Q69.7754-33.6914 67.1143-36.377Q64.4531-39.0625 60.6445-39.0625Q56.8848-39.0625 54.1748-36.377Q51.4648-33.6914 51.4648-29.8828Q51.4648-26.123 54.1748-23.4375Q56.8848-20.752 60.6445-20.752ZM89.3066-38.4766Q93.0664-38.4766 95.752-41.1865Q98.4375-43.8965 98.4375-47.6562Q98.4375-51.4648 95.752-54.1504Q93.0664-56.8359 89.3066-56.8359Q85.5469-56.8359 82.8369-54.1504Q80.127-51.4648 80.127-47.6562Q80.127-43.8965 82.8369-41.1865Q85.5469-38.4766 89.3066-38.4766Z"/>
  </g>
  <g id="Bold-S" transform="matrix(1 0 0 1 2286.8 696)">
   <path d="M9.76562-1.2207Q9.76562 0.537109 10.8398 1.61133Q11.9141 2.68555 13.623 2.68555L91.1621 2.68555Q93.457 2.68555 95.0195 1.17188Q96.582-0.341797 96.582-2.63672Q96.582-4.93164 95.0195-6.44531Q93.457-7.95898 91.1621-7.95898L21.4844-7.95898Q20.3613-7.95898 20.3613-9.0332L20.3613-67.9688Q20.3613-70.2637 18.8721-71.8262Q17.3828-73.3887 15.0879-73.3887Q12.7441-73.3887 11.2549-71.8262Q9.76562-70.2637 9.76562-67.9688ZM14.3555-26.0254L39.6973-40.6738L58.7891-24.9023L92.2852-44.9219L88.3789-51.4648L59.375-34.1309L40.332-49.8535L14.3555-34.8145ZM39.7461-35.8398Q43.2617-35.8398 45.7275-38.3545Q48.1934-40.8691 48.1934-44.3359Q48.1934-47.8516 45.7275-50.3418Q43.2617-52.832 39.7461-52.832Q36.2305-52.832 33.7402-50.3418Q31.25-47.8516 31.25-44.3359Q31.25-40.8691 33.7402-38.3545Q36.2305-35.8398 39.7461-35.8398ZM59.082-20.9961Q62.6465-20.9961 65.1123-23.4863Q67.5781-25.9766 67.5781-29.4922Q67.5781-33.0078 65.1123-35.498Q62.6465-37.9883 59.082-37.9883Q55.6152-37.9883 53.125-35.498Q50.6348-33.0078 50.6348-29.4922Q50.6348-25.9766 53.125-23.4863Q55.6152-20.9961 59.082-20.9961ZM87.8418-38.5254Q91.3574-38.5254 93.8477-41.0156Q96.3379-43.5059 96.3379-47.0215Q96.3379-50.5371 93.8477-53.0273Q91.3574-55.5176 87.8418-55.5176Q84.375-55.5176 81.8848-53.0273Q79.3945-50.5371 79.3945-47.0215Q79.3945-43.5059 81.8848-41.0156Q84.375-38.5254 87.8418-38.5254Z"/>
  </g>
  <g id="Semibold-S" transform="matrix(1 0 0 1 1990.87 696)">
   <path d="M9.76562-1.80664Q9.76562-0.146484 10.7666 0.854492Q11.7676 1.85547 13.4277 1.85547L90.332 1.85547Q92.334 1.85547 93.6768 0.537109Q95.0195-0.78125 95.0195-2.7832Q95.0195-4.78516 93.6768-6.10352Q92.334-7.42188 90.332-7.42188L20.2148-7.42188Q19.043-7.42188 19.043-8.54492L19.043-67.5781Q19.043-69.5312 17.7246-70.8984Q16.4062-72.2656 14.4043-72.2656Q12.4023-72.2656 11.084-70.8984Q9.76562-69.5312 9.76562-67.5781ZM14.3555-26.1719L39.3555-40.625L57.9102-25.1465L90.7715-44.6289L87.3047-50.3906L58.3984-33.3008L39.8926-48.6816L14.3555-33.8867ZM39.1602-35.5957Q42.4805-35.5957 44.8242-37.9639Q47.168-40.332 47.168-43.6035Q47.168-46.9238 44.8242-49.2676Q42.4805-51.6113 39.1602-51.6113Q35.8398-51.6113 33.4961-49.2676Q31.1523-46.9238 31.1523-43.6035Q31.1523-40.332 33.4961-37.9639Q35.8398-35.5957 39.1602-35.5957ZM58.0078-21.1914Q61.377-21.1914 63.7207-23.5352Q66.0645-25.8789 66.0645-29.1504Q66.0645-32.5195 63.7207-34.8633Q61.377-37.207 58.0078-37.207Q54.6875-37.207 52.3438-34.8633Q50-32.5195 50-29.1504Q50-25.8789 52.3438-23.5352Q54.6875-21.1914 58.0078-21.1914ZM86.8652-38.5254Q90.1855-38.5254 92.5049-40.8936Q94.8242-43.2617 94.8242-46.5332Q94.8242-49.9023 92.5049-52.2461Q90.1855-54.5898 86.8652-54.5898Q83.5449-54.5898 81.2012-52.2461Q78.8574-49.9023 78.8574-46.5332Q78.8574-43.2617 81.2012-40.8936Q83.5449-38.5254 86.8652-38.5254Z"/>
  </g>
  <g id="Medium-S" transform="matrix(1 0 0 1 1694.72 696)">
   <path d="M9.76562-2.29492Q9.76562-0.683594 10.7178 0.268555Q11.6699 1.2207 13.2812 1.2207L89.6973 1.2207Q91.4551 1.2207 92.6758 0.0488281Q93.8965-1.12305 93.8965-2.92969Q93.8965-4.63867 92.6758-5.85938Q91.4551-7.08008 89.6973-7.08008L19.2383-7.08008Q18.0664-7.08008 18.0664-8.20312L18.0664-67.2363Q18.0664-68.9941 16.8701-70.2148Q15.6738-71.4355 13.916-71.4355Q12.1582-71.4355 10.9619-70.2148Q9.76562-68.9941 9.76562-67.2363ZM14.4043-26.2695L39.1113-40.5273L57.2266-25.3906L89.5996-44.4336L86.4746-49.6094L57.666-32.6172L39.5996-47.7539L14.4043-33.2031ZM38.7207-35.4004Q41.8945-35.4004 44.1406-37.6709Q46.3867-39.9414 46.3867-43.0664Q46.3867-46.2402 44.1406-48.4863Q41.8945-50.7324 38.7207-50.7324Q35.5957-50.7324 33.3496-48.4863Q31.1035-46.2402 31.1035-43.0664Q31.1035-39.9414 33.3496-37.6709Q35.5957-35.4004 38.7207-35.4004ZM57.2266-21.2891Q60.4004-21.2891 62.6465-23.5352Q64.8926-25.7812 64.8926-28.9551Q64.8926-32.1777 62.6465-34.3994Q60.4004-36.6211 57.2266-36.6211Q54.0527-36.6211 51.8066-34.3994Q49.5605-32.1777 49.5605-28.9551Q49.5605-25.7812 51.8066-23.5352Q54.0527-21.2891 57.2266-21.2891ZM86.084-38.5742Q89.2578-38.5742 91.5039-40.7959Q93.75-43.0176 93.75-46.1914Q93.75-49.4141 91.5039-51.6602Q89.2578-53.9062 86.084-53.9062Q82.9102-53.9062 80.6885-51.6602Q78.4668-49.4141 78.4668-46.1914Q78.4668-43.0176 80.6885-40.7959Q82.9102-38.5742 86.084-38.5742Z"/>
  </g>
  <g id="Regular-S" transform="matrix(1 0 0 1 1398.77 696)">
   <path d="M9.76562-2.88086Q9.76562-1.36719 10.6689-0.463867Q11.5723 0.439453 13.0859 0.439453L88.8672 0.439453Q90.332 0.439453 91.3574-0.585938Q92.3828-1.61133 92.3828-3.07617Q92.3828-4.49219 91.3574-5.54199Q90.332-6.5918 88.8672-6.5918L18.0176-6.5918Q16.7969-6.5918 16.7969-7.76367L16.7969-66.8457Q16.7969-68.2617 15.7715-69.3115Q14.7461-70.3613 13.2812-70.3613Q11.8164-70.3613 10.791-69.3115Q9.76562-68.2617 9.76562-66.8457ZM14.4531-26.416L38.7695-40.4785L56.3965-25.6348L88.0859-44.1406L85.4492-48.5352L56.7383-31.7871L39.1602-46.582L14.4531-32.2754ZM38.1836-35.1562Q41.1621-35.1562 43.2617-37.2803Q45.3613-39.4043 45.3613-42.3828Q45.3613-45.3613 43.2617-47.4609Q41.1621-49.5605 38.1836-49.5605Q35.2051-49.5605 33.1055-47.4609Q31.0059-45.3613 31.0059-42.3828Q31.0059-39.4043 33.1055-37.2803Q35.2051-35.1562 38.1836-35.1562ZM56.1523-21.4844Q59.1797-21.4844 61.2793-23.584Q63.3789-25.6836 63.3789-28.6621Q63.3789-31.6895 61.2793-33.7891Q59.1797-35.8887 56.1523-35.8887Q53.1738-35.8887 51.0742-33.7891Q48.9746-31.6895 48.9746-28.6621Q48.9746-25.6836 51.0742-23.584Q53.1738-21.4844 56.1523-21.4844ZM85.1074-38.5742Q88.0859-38.5742 90.1855-40.6738Q92.2852-42.7734 92.2852-45.752Q92.2852-48.7793 90.1855-50.8789Q88.0859-52.9785 85.1074-52.9785Q82.1289-52.9785 80.0293-50.8789Q77.9297-48.7793 77.9297-45.752Q77.9297-42.7734 80.0293-40.6738Q82.1289-38.5742 85.1074-38.5742Z"/>
  </g>
  <g id="Light-S" transform="matrix(1 0 0 1 1102.43 696)">
   <path d="M9.76562-2.49023Q9.76562-1.2207 10.5225-0.463867Q11.2793 0.292969 12.5488 0.292969L88.9648 0.292969Q90.0879 0.292969 90.8691-0.488281Q91.6504-1.26953 91.6504-2.39258Q91.6504-3.51562 90.8691-4.29688Q90.0879-5.07812 88.9648-5.07812L16.2109-5.07812Q15.1855-5.07812 15.1855-6.10352L15.1855-67.6758Q15.1855-68.75 14.4043-69.5801Q13.623-70.4102 12.5-70.4102Q11.3281-70.4102 10.5469-69.5801Q9.76562-68.75 9.76562-67.6758ZM13.1836-26.4648L38.0371-40.8203L55.8594-25.3418L87.1582-44.3359L84.9121-47.8516L56.1523-30.3711L38.3789-45.752L13.1836-31.1523ZM37.6465-35.791Q40.2832-35.791 42.1875-37.6953Q44.0918-39.5996 44.0918-42.2852Q44.0918-44.9707 42.1875-46.8506Q40.2832-48.7305 37.6465-48.7305Q34.9609-48.7305 33.0566-46.8506Q31.1523-44.9707 31.1523-42.2852Q31.1523-39.5996 33.0566-37.6953Q34.9609-35.791 37.6465-35.791ZM55.7129-21.4844Q58.4473-21.4844 60.3271-23.3643Q62.207-25.2441 62.207-27.9297Q62.207-30.6641 60.3271-32.5439Q58.4473-34.4238 55.7129-34.4238Q53.0762-34.4238 51.1719-32.5439Q49.2676-30.6641 49.2676-27.9297Q49.2676-25.2441 51.1719-23.3643Q53.0762-21.4844 55.7129-21.4844ZM84.5215-39.1602Q87.207-39.1602 89.0869-41.04Q90.9668-42.9199 90.9668-45.6055Q90.9668-48.3398 89.0869-50.2197Q87.207-52.0996 84.5215-52.0996Q81.8359-52.0996 79.9561-50.2197Q78.0762-48.3398 78.0762-45.6055Q78.0762-42.9199 79.9561-41.04Q81.8359-39.1602 84.5215-39.1602Z"/>
  </g>
  <g id="Thin-S" transform="matrix(1 0 0 1 806.178 696)">
   <path d="M9.76562-2.00195Q9.76562-1.02539 10.3271-0.439453Q10.8887 0.146484 11.9141 0.146484L89.0625 0.146484Q89.7461 0.146484 90.2344-0.317383Q90.7227-0.78125 90.7227-1.51367Q90.7227-2.19727 90.2344-2.66113Q89.7461-3.125 89.0625-3.125L13.8184-3.125Q13.0859-3.125 13.0859-3.85742L13.0859-68.75Q13.0859-69.3848 12.6221-69.8975Q12.1582-70.4102 11.4746-70.4102Q10.6934-70.4102 10.2295-69.8975Q9.76562-69.3848 9.76562-68.75ZM11.5234-26.4648L37.0605-41.2598L55.127-25L85.9375-44.6289L84.2773-46.9727L55.3711-28.4668L37.3535-44.6289L11.5234-29.6875ZM36.8652-36.6699Q39.1602-36.6699 40.7715-38.2812Q42.3828-39.8926 42.3828-42.1875Q42.3828-44.4336 40.7715-46.0449Q39.1602-47.6562 36.8652-47.6562Q34.6191-47.6562 33.0078-46.0449Q31.3965-44.4336 31.3965-42.1875Q31.3965-39.8926 33.0078-38.2812Q34.6191-36.6699 36.8652-36.6699ZM55.127-21.4844Q57.4219-21.4844 59.0332-23.0957Q60.6445-24.707 60.6445-26.9531Q60.6445-29.248 59.0332-30.8594Q57.4219-32.4707 55.127-32.4707Q52.8809-32.4707 51.2695-30.8594Q49.6582-29.248 49.6582-26.9531Q49.6582-24.707 51.2695-23.0957Q52.8809-21.4844 55.127-21.4844ZM83.7402-39.9414Q86.0352-39.9414 87.6221-41.5527Q89.209-43.1641 89.209-45.459Q89.209-47.7051 87.6221-49.3164Q86.0352-50.9277 83.7402-50.9277Q81.4453-50.9277 79.834-49.3164Q78.2227-47.7051 78.2227-45.459Q78.2227-43.1641 79.834-41.5527Q81.4453-39.9414 83.7402-39.9414Z"/>
  </g>
  <g id="Ultralight-S" transform="matrix(1 0 0 1 509.711 696)">
   <path d="M9.76562-1.75781Q9.76562-0.927734 10.2295-0.439453Q10.6934 0.0488281 11.5234 0.0488281L89.1602 0.0488281Q89.5508 0.0488281 89.8926-0.244141Q90.2344-0.537109 90.2344-1.02539Q90.2344-1.5625 89.8926-1.83105Q89.5508-2.09961 89.1602-2.09961L12.5488-2.09961Q11.9629-2.09961 11.9629-2.73438L11.9629-69.2871Q11.9629-69.7266 11.6943-70.0928Q11.4258-70.459 10.9375-70.459Q10.3516-70.459 10.0586-70.0928Q9.76562-69.7266 9.76562-69.2871ZM10.6934-26.5137L36.5723-41.4551L54.7852-24.8047L85.3027-44.7754L83.8867-46.5332L54.9805-27.4902L36.8652-44.0918L10.6934-28.9551ZM36.5234-37.1094Q38.5742-37.1094 40.0391-38.5742Q41.5039-40.0391 41.5039-42.0898Q41.5039-44.1895 40.0391-45.6543Q38.5742-47.1191 36.5234-47.1191Q34.4238-47.1191 32.959-45.6543Q31.4941-44.1895 31.4941-42.0898Q31.4941-40.0391 32.959-38.5742Q34.4238-37.1094 36.5234-37.1094ZM54.834-21.4844Q56.9336-21.4844 58.374-22.9492Q59.8145-24.4141 59.8145-26.4648Q59.8145-28.5645 58.374-30.0293Q56.9336-31.4941 54.834-31.4941Q52.832-31.4941 51.3428-30.0293Q49.8535-28.5645 49.8535-26.4648Q49.8535-24.4141 51.3428-22.9492Q52.832-21.4844 54.834-21.4844ZM83.3496-40.332Q85.4004-40.332 86.8652-41.7969Q88.3301-43.2617 88.3301-45.3613Q88.3301-47.4121 86.8652-48.877Q85.4004-50.3418 83.3496-50.3418Q81.25-50.3418 79.7852-48.877Q78.3203-47.4121 78.3203-45.3613Q78.3203-43.2617 79.7852-41.7969Q81.25-40.332 83.3496-40.332Z"/>
  </g>
 </g>
</svg>
