<?xml version="1.0" encoding="UTF-8"?>
<!--Generator: Apple Native CoreSVG 149-->
<!DOCTYPE svg
PUBLIC "-//W3C//DTD SVG 1.1//EN"
       "http://www.w3.org/Graphics/SVG/1.1/DTD/svg11.dtd">
<svg version="1.1" xmlns="http://www.w3.org/2000/svg" xmlns:xlink="http://www.w3.org/1999/xlink" width="3300" height="2200">
 <!--glyph: "uni10043E.medium", point size: 100.0, font version: "17.0d9e1", template writer version: "59"-->
 <g id="Notes">
  <rect height="2200" id="artboard" style="fill:white;opacity:1" width="3300" x="0" y="0"/>
  <line style="fill:none;stroke:black;opacity:1;stroke-width:0.5;" x1="263" x2="3036" y1="292" y2="292"/>
  <text style="stroke:none;fill:black;font-family:sans-serif;font-size:13;font-weight:bold;" transform="matrix(1 0 0 1 263 322)">Weight/Scale Variations</text>
  <text style="stroke:none;fill:black;font-family:sans-serif;font-size:13;text-anchor:middle;" transform="matrix(1 0 0 1 559.711 322)">Ultralight</text>
  <text style="stroke:none;fill:black;font-family:sans-serif;font-size:13;text-anchor:middle;" transform="matrix(1 0 0 1 856.422 322)">Thin</text>
  <text style="stroke:none;fill:black;font-family:sans-serif;font-size:13;text-anchor:middle;" transform="matrix(1 0 0 1 1153.13 322)">Light</text>
  <text style="stroke:none;fill:black;font-family:sans-serif;font-size:13;text-anchor:middle;" transform="matrix(1 0 0 1 1449.84 322)">Regular</text>
  <text style="stroke:none;fill:black;font-family:sans-serif;font-size:13;text-anchor:middle;" transform="matrix(1 0 0 1 1746.56 322)">Medium</text>
  <text style="stroke:none;fill:black;font-family:sans-serif;font-size:13;text-anchor:middle;" transform="matrix(1 0 0 1 2043.27 322)">Semibold</text>
  <text style="stroke:none;fill:black;font-family:sans-serif;font-size:13;text-anchor:middle;" transform="matrix(1 0 0 1 2339.98 322)">Bold</text>
  <text style="stroke:none;fill:black;font-family:sans-serif;font-size:13;text-anchor:middle;" transform="matrix(1 0 0 1 2636.69 322)">Heavy</text>
  <text style="stroke:none;fill:black;font-family:sans-serif;font-size:13;text-anchor:middle;" transform="matrix(1 0 0 1 2933.4 322)">Black</text>
  <line style="fill:none;stroke:black;opacity:1;stroke-width:0.5;" x1="263" x2="3036" y1="1903" y2="1903"/>
  <g transform="matrix(1 0 0 1 263 1933)">
   <path d="M9.24805 0.830078Q10.8691 0.830078 12.2949 0.214844Q13.7207-0.400391 14.8096-1.49414Q15.8984-2.58789 16.5186-4.01367Q17.1387-5.43945 17.1387-7.05078Q17.1387-8.66211 16.5186-10.0879Q15.8984-11.5137 14.8047-12.6074Q13.7109-13.7012 12.2852-14.3164Q10.8594-14.9316 9.23828-14.9316Q7.62695-14.9316 6.20117-14.3164Q4.77539-13.7012 3.69141-12.6074Q2.60742-11.5137 1.9873-10.0879Q1.36719-8.66211 1.36719-7.05078Q1.36719-5.43945 1.9873-4.01367Q2.60742-2.58789 3.69629-1.49414Q4.78516-0.400391 6.21094 0.214844Q7.63672 0.830078 9.24805 0.830078ZM9.24805-0.654297Q7.91992-0.654297 6.7627-1.14746Q5.60547-1.64062 4.73145-2.51953Q3.85742-3.39844 3.36426-4.56055Q2.87109-5.72266 2.87109-7.05078Q2.87109-8.37891 3.35938-9.54102Q3.84766-10.7031 4.72168-11.582Q5.5957-12.4609 6.75293-12.9541Q7.91016-13.4473 9.23828-13.4473Q10.5762-13.4473 11.7334-12.9541Q12.8906-12.4609 13.7695-11.582Q14.6484-10.7031 15.1465-9.54102Q15.6445-8.37891 15.6445-7.05078Q15.6445-5.72266 15.1514-4.56055Q14.6582-3.39844 13.7842-2.51953Q12.9102-1.64062 11.748-1.14746Q10.5859-0.654297 9.24805-0.654297ZM5.83984-7.04102Q5.83984-6.71875 6.04492-6.51855Q6.25-6.31836 6.5918-6.31836L8.50586-6.31836L8.50586-4.39453Q8.50586-4.0625 8.70605-3.85742Q8.90625-3.65234 9.22852-3.65234Q9.56055-3.65234 9.76562-3.85742Q9.9707-4.0625 9.9707-4.39453L9.9707-6.31836L11.8945-6.31836Q12.2266-6.31836 12.4316-6.51855Q12.6367-6.71875 12.6367-7.04102Q12.6367-7.37305 12.4316-7.57812Q12.2266-7.7832 11.8945-7.7832L9.9707-7.7832L9.9707-9.69727Q9.9707-10.0391 9.76562-10.2441Q9.56055-10.4492 9.22852-10.4492Q8.90625-10.4492 8.70605-10.2441Q8.50586-10.0391 8.50586-9.69727L8.50586-7.7832L6.5918-7.7832Q6.25-7.7832 6.04492-7.57812Q5.83984-7.37305 5.83984-7.04102Z"/>
  </g>
  <g transform="matrix(1 0 0 1 281.867 1933)">
   <path d="M11.709 2.91016Q13.75 2.91016 15.5518 2.12891Q17.3535 1.34766 18.7305-0.0292969Q20.1074-1.40625 20.8887-3.20801Q21.6699-5.00977 21.6699-7.05078Q21.6699-9.0918 20.8887-10.8936Q20.1074-12.6953 18.7305-14.0723Q17.3535-15.4492 15.5469-16.2305Q13.7402-17.0117 11.6992-17.0117Q9.6582-17.0117 7.85645-16.2305Q6.05469-15.4492 4.68262-14.0723Q3.31055-12.6953 2.5293-10.8936Q1.74805-9.0918 1.74805-7.05078Q1.74805-5.00977 2.5293-3.20801Q3.31055-1.40625 4.6875-0.0292969Q6.06445 1.34766 7.86621 2.12891Q9.66797 2.91016 11.709 2.91016ZM11.709 1.25Q9.98047 1.25 8.47656 0.605469Q6.97266-0.0390625 5.83496-1.17676Q4.69727-2.31445 4.05762-3.81836Q3.41797-5.32227 3.41797-7.05078Q3.41797-8.7793 4.05762-10.2832Q4.69727-11.7871 5.83008-12.9297Q6.96289-14.0723 8.4668-14.7119Q9.9707-15.3516 11.6992-15.3516Q13.4277-15.3516 14.9316-14.7119Q16.4355-14.0723 17.5781-12.9297Q18.7207-11.7871 19.3652-10.2832Q20.0098-8.7793 20.0098-7.05078Q20.0098-5.32227 19.3701-3.81836Q18.7305-2.31445 17.5928-1.17676Q16.4551-0.0390625 14.9463 0.605469Q13.4375 1.25 11.709 1.25ZM7.39258-7.04102Q7.39258-6.68945 7.62695-6.46484Q7.86133-6.24023 8.23242-6.24023L10.8789-6.24023L10.8789-3.57422Q10.8789-3.21289 11.1035-2.9834Q11.3281-2.75391 11.6797-2.75391Q12.0508-2.75391 12.2852-2.9834Q12.5195-3.21289 12.5195-3.57422L12.5195-6.24023L15.1758-6.24023Q15.5371-6.24023 15.7715-6.46484Q16.0059-6.68945 16.0059-7.04102Q16.0059-7.41211 15.7715-7.6416Q15.5371-7.87109 15.1758-7.87109L12.5195-7.87109L12.5195-10.5176Q12.5195-10.8984 12.2852-11.1279Q12.0508-11.3574 11.6797-11.3574Q11.3281-11.3574 11.1035-11.1279Q10.8789-10.8984 10.8789-10.5176L10.8789-7.87109L8.23242-7.87109Q7.85156-7.87109 7.62207-7.6416Q7.39258-7.41211 7.39258-7.04102Z"/>
  </g>
  <g transform="matrix(1 0 0 1 305.646 1933)">
   <path d="M14.9707 5.66406Q17.0605 5.66406 18.96 5.01465Q20.8594 4.36523 22.4512 3.19336Q24.043 2.02148 25.2197 0.429688Q26.3965-1.16211 27.0459-3.06641Q27.6953-4.9707 27.6953-7.05078Q27.6953-9.14062 27.0459-11.04Q26.3965-12.9395 25.2197-14.5312Q24.043-16.123 22.4512-17.2998Q20.8594-18.4766 18.9551-19.126Q17.0508-19.7754 14.9609-19.7754Q12.8711-19.7754 10.9717-19.126Q9.07227-18.4766 7.48535-17.2998Q5.89844-16.123 4.72168-14.5312Q3.54492-12.9395 2.90039-11.04Q2.25586-9.14062 2.25586-7.05078Q2.25586-4.9707 2.90527-3.06641Q3.55469-1.16211 4.72656 0.429688Q5.89844 2.02148 7.49023 3.19336Q9.08203 4.36523 10.9814 5.01465Q12.8809 5.66406 14.9707 5.66406ZM14.9707 3.84766Q13.1641 3.84766 11.5283 3.2959Q9.89258 2.74414 8.53516 1.74805Q7.17773 0.751953 6.17676-0.610352Q5.17578-1.97266 4.62891-3.6084Q4.08203-5.24414 4.08203-7.05078Q4.08203-8.86719 4.62891-10.5029Q5.17578-12.1387 6.17188-13.501Q7.16797-14.8633 8.52539-15.8594Q9.88281-16.8555 11.5186-17.4023Q13.1543-17.9492 14.9609-17.9492Q16.7773-17.9492 18.4131-17.4023Q20.0488-16.8555 21.4111-15.8594Q22.7734-14.8633 23.7695-13.501Q24.7656-12.1387 25.3174-10.5029Q25.8691-8.86719 25.8691-7.05078Q25.8789-5.24414 25.332-3.6084Q24.7852-1.97266 23.7842-0.610352Q22.7832 0.751953 21.4209 1.74805Q20.0586 2.74414 18.4229 3.2959Q16.7871 3.84766 14.9707 3.84766ZM9.45312-7.04102Q9.45312-6.66016 9.71191-6.41113Q9.9707-6.16211 10.3711-6.16211L14.0625-6.16211L14.0625-2.46094Q14.0625-2.06055 14.3115-1.80664Q14.5605-1.55273 14.9414-1.55273Q15.3516-1.55273 15.6055-1.80664Q15.8594-2.06055 15.8594-2.46094L15.8594-6.16211L19.5605-6.16211Q19.9609-6.16211 20.2148-6.41113Q20.4688-6.66016 20.4688-7.04102Q20.4688-7.45117 20.2148-7.70508Q19.9609-7.95898 19.5605-7.95898L15.8594-7.95898L15.8594-11.6504Q15.8594-12.0605 15.6055-12.3145Q15.3516-12.5684 14.9414-12.5684Q14.5605-12.5684 14.3115-12.3096Q14.0625-12.0508 14.0625-11.6504L14.0625-7.95898L10.3711-7.95898Q9.96094-7.95898 9.70703-7.70508Q9.45312-7.45117 9.45312-7.04102Z"/>
  </g>
  <text style="stroke:none;fill:black;font-family:sans-serif;font-size:13;font-weight:bold;" transform="matrix(1 0 0 1 263 1953)">Design Variations</text>
  <text style="stroke:none;fill:black;font-family:sans-serif;font-size:13;" transform="matrix(1 0 0 1 263 1971)">Symbols are supported in up to nine weights and three scales.</text>
  <text style="stroke:none;fill:black;font-family:sans-serif;font-size:13;" transform="matrix(1 0 0 1 263 1989)">For optimal layout with text and other symbols, vertically align</text>
  <text style="stroke:none;fill:black;font-family:sans-serif;font-size:13;" transform="matrix(1 0 0 1 263 2007)">symbols with the adjacent text.</text>
  <line style="fill:none;stroke:#00AEEF;stroke-width:0.5;opacity:1.0;" x1="776" x2="776" y1="1919" y2="1933"/>
  <g transform="matrix(1 0 0 1 776 1933)">
   <path d="M3.31055 0.15625Q3.70117 0.15625 3.91602-0.00976562Q4.13086-0.175781 4.26758-0.585938L5.52734-4.0332L11.2891-4.0332L12.5488-0.585938Q12.6855-0.175781 12.9004-0.00976562Q13.1152 0.15625 13.4961 0.15625Q13.8867 0.15625 14.1162-0.0585938Q14.3457-0.273438 14.3457-0.644531Q14.3457-0.869141 14.2383-1.17188L9.6582-13.3691Q9.48242-13.8184 9.17969-14.043Q8.87695-14.2676 8.4082-14.2676Q7.5-14.2676 7.17773-13.3789L2.59766-1.16211Q2.49023-0.859375 2.49023-0.634766Q2.49023-0.263672 2.70996-0.0537109Q2.92969 0.15625 3.31055 0.15625ZM6.00586-5.51758L8.37891-12.0898L8.42773-12.0898L10.8008-5.51758Z"/>
  </g>
  <line style="fill:none;stroke:#00AEEF;stroke-width:0.5;opacity:1.0;" x1="793.197" x2="793.197" y1="1919" y2="1933"/>
  <text style="stroke:none;fill:black;font-family:sans-serif;font-size:13;font-weight:bold;" transform="matrix(1 0 0 1 776 1953)">Margins</text>
  <text style="stroke:none;fill:black;font-family:sans-serif;font-size:13;" transform="matrix(1 0 0 1 776 1971)">Leading and trailing margins on the left and right side of each symbol</text>
  <text style="stroke:none;fill:black;font-family:sans-serif;font-size:13;" transform="matrix(1 0 0 1 776 1989)">can be adjusted by modifying the x-location of the margin guidelines.</text>
  <text style="stroke:none;fill:black;font-family:sans-serif;font-size:13;" transform="matrix(1 0 0 1 776 2007)">Modifications are automatically applied proportionally to all</text>
  <text style="stroke:none;fill:black;font-family:sans-serif;font-size:13;" transform="matrix(1 0 0 1 776 2025)">scales and weights.</text>
  <g transform="matrix(1 0 0 1 1289 1933)">
   <path d="M2.8418 1.86523L4.54102 3.57422Q5.18555 4.22852 5.90332 4.17969Q6.62109 4.13086 7.31445 3.35938L18.0078-8.42773L17.041-9.4043L6.42578 2.27539Q6.16211 2.57812 5.89355 2.61719Q5.625 2.65625 5.27344 2.30469L4.10156 1.14258Q3.75 0.791016 3.79395 0.522461Q3.83789 0.253906 4.14062-0.0195312L15.6152-10.8203L14.6387-11.7871L3.04688-0.898438Q2.30469-0.214844 2.25098 0.498047Q2.19727 1.21094 2.8418 1.86523ZM9.25781-16.3281Q8.94531-16.0254 8.90625-15.6348Q8.86719-15.2441 9.04297-14.9512Q9.21875-14.6777 9.55566-14.541Q9.89258-14.4043 10.3809-14.5215Q11.4746-14.7754 12.5977-14.7314Q13.7207-14.6875 14.7949-13.9844L14.209-12.5293Q13.9551-11.9043 14.0674-11.4404Q14.1797-10.9766 14.5801-10.5664L16.875-8.25195Q17.2363-7.88086 17.5781-7.82227Q17.9199-7.76367 18.3398-7.8418L19.4043-8.03711L20.0684-7.36328L20.0293-6.80664Q20-6.43555 20.1221-6.12305Q20.2441-5.81055 20.6055-5.44922L21.3672-4.70703Q21.7285-4.3457 22.1533-4.33105Q22.5781-4.31641 22.9297-4.66797L25.8398-7.58789Q26.1914-7.93945 26.1816-8.35449Q26.1719-8.76953 25.8105-9.13086L25.0391-9.89258Q24.6875-10.2539 24.3799-10.3857Q24.0723-10.5176 23.7109-10.4883L23.1348-10.4395L22.4902-11.0742L22.7344-12.1973Q22.832-12.6172 22.6953-12.9834Q22.5586-13.3496 22.1191-13.7891L19.9219-15.9766Q18.6719-17.2168 17.2607-17.8369Q15.8496-18.457 14.4189-18.4814Q12.9883-18.5059 11.665-17.959Q10.3418-17.4121 9.25781-16.3281ZM10.752-15.957Q11.6602-16.6211 12.7002-16.9043Q13.7402-17.1875 14.8047-17.085Q15.8691-16.9824 16.8701-16.5137Q17.8711-16.0449 18.7012-15.2051L21.1328-12.793Q21.3086-12.6172 21.3525-12.4512Q21.3965-12.2852 21.3379-12.0312L21.0156-10.5469L22.5195-9.0625L23.5059-9.12109Q23.6914-9.13086 23.7891-9.09668Q23.8867-9.0625 24.0332-8.91602L24.6094-8.33984L22.168-5.89844L21.5918-6.47461Q21.4453-6.62109 21.4062-6.71875Q21.3672-6.81641 21.377-7.01172L21.4453-7.98828L19.9512-9.47266L18.4277-9.21875Q18.1836-9.16992 18.042-9.2041Q17.9004-9.23828 17.7148-9.41406L15.7129-11.416Q15.5176-11.5918 15.4932-11.7529Q15.4688-11.9141 15.5859-12.1875L16.4648-14.2773Q15.293-15.3711 13.8281-15.791Q12.3633-16.2109 10.8398-15.7617Q10.7227-15.7324 10.6885-15.8057Q10.6543-15.8789 10.752-15.957Z"/>
  </g>
  <text style="stroke:none;fill:black;font-family:sans-serif;font-size:13;font-weight:bold;" transform="matrix(1 0 0 1 1289 1953)">Exporting</text>
  <text style="stroke:none;fill:black;font-family:sans-serif;font-size:13;" transform="matrix(1 0 0 1 1289 1971)">Symbols should be outlined when exporting to ensure the</text>
  <text style="stroke:none;fill:black;font-family:sans-serif;font-size:13;" transform="matrix(1 0 0 1 1289 1989)">design is preserved when submitting to Xcode.</text>
  <text id="template-version" style="stroke:none;fill:black;font-family:sans-serif;font-size:13;text-anchor:end;" transform="matrix(1 0 0 1 3036 1933)">Template v.2.0</text>
  <text style="stroke:none;fill:black;font-family:sans-serif;font-size:13;text-anchor:end;" transform="matrix(1 0 0 1 3036 1951)">Requires Xcode 13 or greater</text>
  <text id="descriptive-name" style="stroke:none;fill:black;font-family:sans-serif;font-size:13;text-anchor:end;" transform="matrix(1 0 0 1 3036 1969)">Generated from chart.bar</text>
  <text style="stroke:none;fill:black;font-family:sans-serif;font-size:13;text-anchor:end;" transform="matrix(1 0 0 1 3036 1987)">Typeset at 100 points</text>
  <text style="stroke:none;fill:black;font-family:sans-serif;font-size:13;" transform="matrix(1 0 0 1 263 726)">Small</text>
  <text style="stroke:none;fill:black;font-family:sans-serif;font-size:13;" transform="matrix(1 0 0 1 263 1156)">Medium</text>
  <text style="stroke:none;fill:black;font-family:sans-serif;font-size:13;" transform="matrix(1 0 0 1 263 1586)">Large</text>
 </g>
 <g id="Guides">
  <g id="H-reference" style="fill:#27AAE1;stroke:none;" transform="matrix(1 0 0 1 339 696)">
   <path d="M0.976562 0L3.66211 0L29.3457-67.1387L30.0293-67.1387L30.0293-70.459L28.125-70.459ZM11.6699-24.4629L46.9727-24.4629L46.2402-26.709L12.4512-26.709ZM55.127 0L57.7637 0L30.6152-70.459L29.4434-70.459L29.4434-67.1387Z"/>
  </g>
  <line id="Baseline-S" style="fill:none;stroke:#27AAE1;opacity:1;stroke-width:0.5;" x1="263" x2="3036" y1="696" y2="696"/>
  <line id="Capline-S" style="fill:none;stroke:#27AAE1;opacity:1;stroke-width:0.5;" x1="263" x2="3036" y1="625.541" y2="625.541"/>
  <g id="H-reference" style="fill:#27AAE1;stroke:none;" transform="matrix(1 0 0 1 339 1126)">
   <path d="M0.976562 0L3.66211 0L29.3457-67.1387L30.0293-67.1387L30.0293-70.459L28.125-70.459ZM11.6699-24.4629L46.9727-24.4629L46.2402-26.709L12.4512-26.709ZM55.127 0L57.7637 0L30.6152-70.459L29.4434-70.459L29.4434-67.1387Z"/>
  </g>
  <line id="Baseline-M" style="fill:none;stroke:#27AAE1;opacity:1;stroke-width:0.5;" x1="263" x2="3036" y1="1126" y2="1126"/>
  <line id="Capline-M" style="fill:none;stroke:#27AAE1;opacity:1;stroke-width:0.5;" x1="263" x2="3036" y1="1055.54" y2="1055.54"/>
  <g id="H-reference" style="fill:#27AAE1;stroke:none;" transform="matrix(1 0 0 1 339 1556)">
   <path d="M0.976562 0L3.66211 0L29.3457-67.1387L30.0293-67.1387L30.0293-70.459L28.125-70.459ZM11.6699-24.4629L46.9727-24.4629L46.2402-26.709L12.4512-26.709ZM55.127 0L57.7637 0L30.6152-70.459L29.4434-70.459L29.4434-67.1387Z"/>
  </g>
  <line id="Baseline-L" style="fill:none;stroke:#27AAE1;opacity:1;stroke-width:0.5;" x1="263" x2="3036" y1="1556" y2="1556"/>
  <line id="Capline-L" style="fill:none;stroke:#27AAE1;opacity:1;stroke-width:0.5;" x1="263" x2="3036" y1="1485.54" y2="1485.54"/>
  <line id="left-margin" style="fill:none;stroke:#00AEEF;stroke-width:0.5;opacity:1.0;" x1="1375.36" x2="1375.36" y1="1030.79" y2="1150.12"/>
  <line id="right-margin" style="fill:none;stroke:#00AEEF;stroke-width:0.5;opacity:1.0;" x1="1524.33" x2="1524.33" y1="1030.79" y2="1150.12"/>
 </g>
 <g id="Symbols">
  <g id="Black-L" transform="matrix(1 0 0 1 2826.1 1556)">
   <path d="M37.8906 26.6113L49.6094 26.6113Q59.6191 26.6113 65.5273 20.9961Q71.4355 15.3809 71.4355 5.76172L71.4355-38.7695Q71.4355-48.3398 65.5273-53.9795Q59.6191-59.6191 49.6094-59.6191L37.8906-59.6191Q27.8809-59.6191 21.9727-53.9795Q16.0645-48.3398 16.0645-38.7207L16.0645 5.76172Q16.0645 15.3809 21.9727 20.9961Q27.8809 26.6113 37.8906 26.6113ZM41.0156 9.32617Q38.0859 9.32617 36.5234 7.8125Q34.9609 6.29883 34.9609 3.4668L34.9609-36.4258Q34.9609-39.3066 36.5234-40.8203Q38.0859-42.334 41.0156-42.334L46.5332-42.334Q49.4629-42.334 51.001-40.8203Q52.5391-39.3066 52.5391-36.4258L52.5391 3.4668Q52.5391 6.29883 51.001 7.8125Q49.4629 9.32617 46.4844 9.32617ZM101.416 26.6113L113.135 26.6113Q123.193 26.6113 129.102 20.9961Q135.01 15.3809 135.01 5.76172L135.01-57.4707Q135.01-67.041 129.102-72.6562Q123.193-78.2715 113.135-78.2715L101.416-78.2715Q91.4062-78.2715 85.498-72.6318Q79.5898-66.9922 79.5898-57.373L79.5898 5.76172Q79.5898 15.3809 85.498 20.9961Q91.4062 26.6113 101.416 26.6113ZM104.541 9.32617Q101.611 9.32617 100.073 7.8125Q98.5352 6.29883 98.5352 3.4668L98.5352-55.127Q98.5352-57.959 100.073-59.4971Q101.611-61.0352 104.541-61.0352L110.059-61.0352Q112.988-61.0352 114.551-59.4971Q116.113-57.959 116.113-55.127L116.113 3.4668Q116.113 6.29883 114.551 7.8125Q112.988 9.32617 110.01 9.32617ZM164.99 26.6113L176.709 26.6113Q186.719 26.6113 192.627 20.9961Q198.535 15.3809 198.535 5.76172L198.535-75.7812Q198.535-85.3516 192.627-90.9912Q186.719-96.6309 176.709-96.6309L164.99-96.6309Q154.932-96.6309 149.048-90.9912Q143.164-85.3516 143.164-75.7324L143.164 5.76172Q143.164 15.3809 149.048 20.9961Q154.932 26.6113 164.99 26.6113ZM168.066 9.32617Q165.137 9.32617 163.599 7.8125Q162.061 6.29883 162.061 3.4668L162.061-73.4375Q162.061-76.3184 163.599-77.832Q165.137-79.3457 168.066-79.3457L173.633-79.3457Q176.562-79.3457 178.101-77.832Q179.639-76.3184 179.639-73.4375L179.639 3.4668Q179.639 6.29883 178.076 7.8125Q176.514 9.32617 173.535 9.32617Z"/>
  </g>
  <g id="Heavy-L" transform="matrix(1 0 0 1 2532.29 1556)">
   <path d="M35.9863 25.9277L49.0723 25.9277Q58.3496 25.9277 63.6963 20.8496Q69.043 15.7715 69.043 6.88477L69.043-40.1367Q69.043-49.0234 63.6963-54.126Q58.3496-59.2285 49.0723-59.2285L35.9863-59.2285Q26.709-59.2285 21.3867-54.126Q16.0645-49.0234 16.0645-40.0879L16.0645 6.88477Q16.0645 15.7715 21.3867 20.8496Q26.709 25.9277 35.9863 25.9277ZM38.7207 10.791Q35.5957 10.791 34.0576 9.27734Q32.5195 7.76367 32.5195 4.78516L32.5195-38.0371Q32.5195-41.0645 34.0576-42.5781Q35.5957-44.0918 38.7207-44.0918L46.4355-44.0918Q49.5117-44.0918 51.0498-42.5781Q52.5879-41.0645 52.5879-38.0371L52.5879 4.78516Q52.5879 7.76367 51.0498 9.27734Q49.5117 10.791 46.3867 10.791ZM97.8027 25.9277L110.889 25.9277Q120.215 25.9277 125.562 20.8496Q130.908 15.7715 130.908 6.88477L130.908-58.6914Q130.908-67.5781 125.562-72.6562Q120.215-77.7344 110.889-77.7344L97.8027-77.7344Q88.5254-77.7344 83.2031-72.6562Q77.8809-67.5781 77.8809-58.6426L77.8809 6.88477Q77.8809 15.7715 83.2031 20.8496Q88.5254 25.9277 97.8027 25.9277ZM100.537 10.791Q97.4121 10.791 95.8984 9.27734Q94.3848 7.76367 94.3848 4.78516L94.3848-56.5918Q94.3848-59.6191 95.8984-61.1328Q97.4121-62.6465 100.537-62.6465L108.252-62.6465Q111.328-62.6465 112.891-61.1328Q114.453-59.6191 114.453-56.5918L114.453 4.78516Q114.453 7.76367 112.891 9.27734Q111.328 10.791 108.203 10.791ZM159.668 25.9277L172.754 25.9277Q182.031 25.9277 187.378 20.8496Q192.725 15.7715 192.725 6.88477L192.725-77.0508Q192.725-85.9375 187.378-91.0156Q182.031-96.0938 172.754-96.0938L159.668-96.0938Q150.342-96.0938 145.044-91.0156Q139.746-85.9375 139.746-77.002L139.746 6.88477Q139.746 15.7715 145.044 20.8496Q150.342 25.9277 159.668 25.9277ZM162.305 10.791Q159.229 10.791 157.715 9.27734Q156.201 7.76367 156.201 4.78516L156.201-74.9023Q156.201-77.9785 157.715-79.4678Q159.229-80.957 162.305-80.957L170.117-80.957Q173.193-80.957 174.731-79.4678Q176.27-77.9785 176.27-74.9023L176.27 4.78516Q176.27 7.76367 174.707 9.27734Q173.145 10.791 170.02 10.791Z"/>
  </g>
  <g id="Bold-L" transform="matrix(1 0 0 1 2238.85 1556)">
   <path d="M33.8867 25.1953L48.5352 25.1953Q56.9336 25.1953 61.6455 20.7275Q66.3574 16.2598 66.3574 8.1543L66.3574-41.6992Q66.3574-49.8047 61.6455-54.2725Q56.9336-58.7402 48.5352-58.7402L33.8867-58.7402Q25.4395-58.7402 20.752-54.2725Q16.0645-49.8047 16.0645-41.6504L16.0645 8.1543Q16.0645 16.2598 20.752 20.7275Q25.4395 25.1953 33.8867 25.1953ZM36.1328 12.5Q32.8613 12.5 31.3232 10.9863Q29.7852 9.47266 29.7852 6.29883L29.7852-39.7949Q29.7852-43.0176 31.3232-44.5312Q32.8613-46.0449 36.1328-46.0449L46.3379-46.0449Q49.6094-46.0449 51.123-44.5312Q52.6367-43.0176 52.6367-39.7949L52.6367 6.29883Q52.6367 9.47266 51.123 10.9863Q49.6094 12.5 46.3379 12.5ZM93.7988 25.1953L108.398 25.1953Q116.895 25.1953 121.582 20.7275Q126.27 16.2598 126.27 8.1543L126.27-60.1074Q126.27-68.2129 121.582-72.7051Q116.895-77.1973 108.398-77.1973L93.7988-77.1973Q85.3516-77.1973 80.6641-72.7051Q75.9766-68.2129 75.9766-60.0586L75.9766 8.1543Q75.9766 16.2598 80.6641 20.7275Q85.3516 25.1953 93.7988 25.1953ZM96.0449 12.5Q92.7734 12.5 91.2598 10.9863Q89.7461 9.47266 89.7461 6.29883L89.7461-58.252Q89.7461-61.4258 91.2598-62.9639Q92.7734-64.502 96.0449-64.502L106.25-64.502Q109.521-64.502 111.035-62.9639Q112.549-61.4258 112.549-58.252L112.549 6.29883Q112.549 9.47266 111.035 10.9863Q109.521 12.5 106.201 12.5ZM153.711 25.1953L168.359 25.1953Q176.807 25.1953 181.494 20.7275Q186.182 16.2598 186.182 8.1543L186.182-78.4668Q186.182-86.5723 181.494-91.04Q176.807-95.5078 168.359-95.5078L153.711-95.5078Q145.264-95.5078 140.576-91.04Q135.889-86.5723 135.889-78.418L135.889 8.1543Q135.889 16.2598 140.576 20.7275Q145.264 25.1953 153.711 25.1953ZM155.908 12.5Q152.686 12.5 151.147 10.9863Q149.609 9.47266 149.609 6.29883L149.609-76.5625Q149.609-79.7852 151.147-81.2988Q152.686-82.8125 155.908-82.8125L166.162-82.8125Q169.434-82.8125 170.947-81.2988Q172.461-79.7852 172.461-76.5625L172.461 6.29883Q172.461 9.47266 170.923 10.9863Q169.385 12.5 166.113 12.5Z"/>
  </g>
  <g id="Semibold-L" transform="matrix(1 0 0 1 1944.39 1556)">
   <path d="M32.4219 24.6582L48.0957 24.6582Q55.957 24.6582 60.2295 20.6055Q64.502 16.5527 64.502 8.98438L64.502-42.7246Q64.502-50.293 60.2295-54.3457Q55.957-58.3984 48.0957-58.3984L32.4219-58.3984Q24.5605-58.3984 20.3125-54.3457Q16.0645-50.293 16.0645-42.7246L16.0645 8.98438Q16.0645 16.5527 20.3125 20.6055Q24.5605 24.6582 32.4219 24.6582ZM34.3262 13.623Q30.957 13.623 29.4189 12.1094Q27.8809 10.5957 27.8809 7.27539L27.8809-41.0156Q27.8809-44.3848 29.4189-45.874Q30.957-47.3633 34.3262-47.3633L46.2891-47.3633Q49.6094-47.3633 51.1475-45.874Q52.6855-44.3848 52.6855-41.0156L52.6855 7.27539Q52.6855 10.5957 51.1475 12.1094Q49.6094 13.623 46.2402 13.623ZM91.0156 24.6582L106.689 24.6582Q114.551 24.6582 118.823 20.6055Q123.096 16.5527 123.096 8.98438L123.096-61.084Q123.096-68.6523 118.823-72.7051Q114.551-76.7578 106.689-76.7578L91.0156-76.7578Q83.1543-76.7578 78.9062-72.6807Q74.6582-68.6035 74.6582-61.0352L74.6582 8.98438Q74.6582 16.5527 78.9062 20.6055Q83.1543 24.6582 91.0156 24.6582ZM92.9199 13.623Q89.502 13.623 88.0127 12.1094Q86.5234 10.5957 86.5234 7.27539L86.5234-59.375Q86.5234-62.6953 88.0127-64.209Q89.502-65.7227 92.9199-65.7227L104.834-65.7227Q108.203-65.7227 109.717-64.209Q111.23-62.6953 111.23-59.375L111.23 7.27539Q111.23 10.5957 109.717 12.1094Q108.203 13.623 104.834 13.623ZM149.609 24.6582L165.283 24.6582Q173.145 24.6582 177.417 20.6055Q181.689 16.5527 181.689 8.98438L181.689-79.3945Q181.689-86.9629 177.417-91.04Q173.145-95.1172 165.283-95.1172L149.609-95.1172Q141.699-95.1172 137.476-91.04Q133.252-86.9629 133.252-79.3945L133.252 8.98438Q133.252 16.5527 137.476 20.6055Q141.699 24.6582 149.609 24.6582ZM151.465 13.623Q148.096 13.623 146.582 12.1094Q145.068 10.5957 145.068 7.27539L145.068-77.6855Q145.068-81.0547 146.582-82.5439Q148.096-84.0332 151.465-84.0332L163.428-84.0332Q166.797-84.0332 168.311-82.5439Q169.824-81.0547 169.824-77.6855L169.824 7.27539Q169.824 10.5957 168.311 12.1094Q166.797 13.623 163.428 13.623Z"/>
  </g>
  <g id="Medium-L" transform="matrix(1 0 0 1 1649.39 1556)">
   <path d="M31.3477 24.2676L47.8027 24.2676Q55.2246 24.2676 59.1553 20.5322Q63.0859 16.7969 63.0859 9.66797L63.0859-43.5547Q63.0859-50.6836 59.1553-54.4189Q55.2246-58.1543 47.8027-58.1543L31.3477-58.1543Q23.877-58.1543 19.9707-54.4189Q16.0645-50.6836 16.0645-43.5059L16.0645 9.66797Q16.0645 16.7969 19.9707 20.5322Q23.877 24.2676 31.3477 24.2676ZM32.959 14.502Q29.541 14.502 28.0029 12.9883Q26.4648 11.4746 26.4648 8.05664L26.4648-41.9434Q26.4648-45.4102 28.0029-46.8994Q29.541-48.3887 32.959-48.3887L46.1914-48.3887Q49.6582-48.3887 51.1719-46.8994Q52.6855-45.4102 52.6855-41.9434L52.6855 8.05664Q52.6855 11.4746 51.1719 12.9883Q49.6582 14.502 46.1914 14.502ZM88.8672 24.2676L105.371 24.2676Q112.842 24.2676 116.748 20.5322Q120.654 16.7969 120.654 9.66797L120.654-61.8164Q120.654-68.9453 116.748-72.7051Q112.842-76.4648 105.371-76.4648L88.8672-76.4648Q81.4941-76.4648 77.5879-72.7051Q73.6816-68.9453 73.6816-61.7676L73.6816 9.66797Q73.6816 16.7969 77.5879 20.5322Q81.4941 24.2676 88.8672 24.2676ZM90.5762 14.502Q87.0605 14.502 85.5713 12.9883Q84.082 11.4746 84.082 8.05664L84.082-60.2051Q84.082-63.623 85.5713-65.1611Q87.0605-66.6992 90.5762-66.6992L103.76-66.6992Q107.275-66.6992 108.765-65.1611Q110.254-63.623 110.254-60.2051L110.254 8.05664Q110.254 11.4746 108.765 12.9883Q107.275 14.502 103.76 14.502ZM146.484 24.2676L162.988 24.2676Q170.41 24.2676 174.341 20.5322Q178.271 16.7969 178.271 9.66797L178.271-80.127Q178.271-87.3047 174.341-91.04Q170.41-94.7754 162.988-94.7754L146.484-94.7754Q139.014-94.7754 135.132-91.04Q131.25-87.3047 131.25-80.127L131.25 9.66797Q131.25 16.7969 135.132 20.5322Q139.014 24.2676 146.484 24.2676ZM148.145 14.502Q144.678 14.502 143.164 12.9883Q141.65 11.4746 141.65 8.05664L141.65-78.5645Q141.65-81.9824 143.164-83.4961Q144.678-85.0098 148.145-85.0098L161.377-85.0098Q164.844-85.0098 166.357-83.4961Q167.871-81.9824 167.871-78.5645L167.871 8.05664Q167.871 11.4746 166.357 12.9883Q164.844 14.502 161.377 14.502Z"/>
  </g>
  <g id="Regular-L" transform="matrix(1 0 0 1 1354.9 1556)">
   <path d="M29.8828 23.7793L47.4121 23.7793Q54.248 23.7793 57.7637 20.4346Q61.2793 17.0898 61.2793 10.498L61.2793-44.5801Q61.2793-51.2207 57.7637-54.541Q54.248-57.8613 47.4121-57.8613L29.8828-57.8613Q22.998-57.8613 19.5312-54.541Q16.0645-51.2207 16.0645-44.5801L16.0645 10.498Q16.0645 17.0898 19.5312 20.4346Q22.998 23.7793 29.8828 23.7793ZM31.2012 15.625Q27.6367 15.625 26.123 14.1113Q24.6094 12.5977 24.6094 9.08203L24.6094-43.1641Q24.6094-46.7285 26.123-48.2178Q27.6367-49.707 31.2012-49.707L46.1426-49.707Q49.707-49.707 51.2207-48.2178Q52.7344-46.7285 52.7344-43.1641L52.7344 9.08203Q52.7344 12.5977 51.2207 14.1113Q49.707 15.625 46.1426 15.625ZM86.1328 23.7793L103.662 23.7793Q110.547 23.7793 114.038 20.4346Q117.529 17.0898 117.529 10.498L117.529-62.7441Q117.529-69.3848 114.038-72.7295Q110.547-76.0742 103.662-76.0742L86.1328-76.0742Q79.2969-76.0742 75.8301-72.7295Q72.3633-69.3848 72.3633-62.7441L72.3633 10.498Q72.3633 17.0898 75.8301 20.4346Q79.2969 23.7793 86.1328 23.7793ZM87.5 15.625Q83.8867 15.625 82.3975 14.1113Q80.9082 12.5977 80.9082 9.08203L80.9082-61.3281Q80.9082-64.8926 82.3975-66.4062Q83.8867-67.9199 87.5-67.9199L102.393-67.9199Q106.006-67.9199 107.495-66.4062Q108.984-64.8926 108.984-61.3281L108.984 9.08203Q108.984 12.5977 107.495 14.1113Q106.006 15.625 102.393 15.625ZM142.432 23.7793L159.961 23.7793Q166.846 23.7793 170.337 20.4346Q173.828 17.0898 173.828 10.498L173.828-81.1035Q173.828-87.7441 170.337-91.0645Q166.846-94.3848 159.961-94.3848L142.432-94.3848Q135.547-94.3848 132.08-91.0645Q128.613-87.7441 128.613-81.1035L128.613 10.498Q128.613 17.0898 132.08 20.4346Q135.547 23.7793 142.432 23.7793ZM143.75 15.625Q140.186 15.625 138.672 14.1113Q137.158 12.5977 137.158 9.08203L137.158-79.6875Q137.158-83.252 138.672-84.7412Q140.186-86.2305 143.75-86.2305L158.691-86.2305Q162.256-86.2305 163.77-84.7412Q165.283-83.252 165.283-79.6875L165.283 9.08203Q165.283 12.5977 163.77 14.1113Q162.256 15.625 158.691 15.625Z"/>
  </g>
  <g id="Light-L" transform="matrix(1 0 0 1 1059.77 1556)">
   <path d="M28.4668 23.4375L46.7285 23.4375Q52.8809 23.4375 56.0303 20.3613Q59.1797 17.2852 59.1797 11.2305L59.1797-45.6543Q59.1797-51.8066 56.0303-54.834Q52.8809-57.8613 46.7285-57.8613L28.4668-57.8613Q22.2656-57.8613 19.165-54.834Q16.0645-51.8066 16.0645-45.6543L16.0645 11.2305Q16.0645 17.2852 19.165 20.3613Q22.2656 23.4375 28.4668 23.4375ZM29.2969 17.0898Q25.7812 17.0898 24.1943 15.4785Q22.6074 13.8672 22.6074 10.3516L22.6074-44.7754Q22.6074-48.3398 24.1943-49.9512Q25.7812-51.5625 29.2969-51.5625L45.9473-51.5625Q49.4629-51.5625 51.0498-49.9512Q52.6367-48.3398 52.6367-44.7754L52.6367 10.3516Q52.6367 13.8672 51.0498 15.4785Q49.4629 17.0898 45.9473 17.0898ZM84.1797 23.4375L102.441 23.4375Q108.643 23.4375 111.768 20.3613Q114.893 17.2852 114.893 11.2305L114.893-63.6719Q114.893-69.7754 111.768-72.8271Q108.643-75.8789 102.441-75.8789L84.1797-75.8789Q78.0273-75.8789 74.9268-72.8271Q71.8262-69.7754 71.8262-63.6719L71.8262 11.2305Q71.8262 17.2852 74.9268 20.3613Q78.0273 23.4375 84.1797 23.4375ZM85.0586 17.0898Q81.4941 17.0898 79.9316 15.4785Q78.3691 13.8672 78.3691 10.3516L78.3691-62.7441Q78.3691-66.3086 79.9316-67.9443Q81.4941-69.5801 85.0586-69.5801L101.66-69.5801Q105.225-69.5801 106.787-67.9443Q108.35-66.3086 108.35-62.7441L108.35 10.3516Q108.35 13.8672 106.787 15.4785Q105.225 17.0898 101.66 17.0898ZM139.941 23.4375L158.203 23.4375Q164.404 23.4375 167.529 20.3613Q170.654 17.2852 170.654 11.2305L170.654-81.9336Q170.654-88.0371 167.529-91.0645Q164.404-94.0918 158.203-94.0918L139.941-94.0918Q133.789-94.0918 130.664-91.0645Q127.539-88.0371 127.539-81.9336L127.539 11.2305Q127.539 17.2852 130.664 20.3613Q133.789 23.4375 139.941 23.4375ZM140.771 17.0898Q137.256 17.0898 135.669 15.4785Q134.082 13.8672 134.082 10.3516L134.082-81.0547Q134.082-84.6191 135.669-86.2061Q137.256-87.793 140.771-87.793L157.422-87.793Q160.938-87.793 162.524-86.2061Q164.111-84.6191 164.111-81.0547L164.111 10.3516Q164.111 13.8672 162.524 15.4785Q160.938 17.0898 157.422 17.0898Z"/>
  </g>
  <g id="Thin-L" transform="matrix(1 0 0 1 765.162 1556)">
   <path d="M26.6113 22.9492L45.8496 22.9492Q51.0254 22.9492 53.6865 20.2637Q56.3477 17.5781 56.3477 12.207L56.3477-47.1191Q56.3477-52.5391 53.6865-55.2002Q51.0254-57.8613 45.8496-57.8613L26.6113-57.8613Q21.3379-57.8613 18.7012-55.2002Q16.0645-52.5391 16.0645-47.1191L16.0645 12.207Q16.0645 17.5781 18.7012 20.2637Q21.3379 22.9492 26.6113 22.9492ZM26.7578 19.0918Q23.3398 19.0918 21.6553 17.3096Q19.9707 15.5273 19.9707 12.0117L19.9707-46.9238Q19.9707-50.4883 21.6553-52.2461Q23.3398-54.0039 26.7578-54.0039L45.6543-54.0039Q49.1211-54.0039 50.7812-52.2461Q52.4414-50.4883 52.4414-46.9238L52.4414 12.0117Q52.4414 15.5273 50.7812 17.3096Q49.1211 19.0918 45.6543 19.0918ZM81.6406 22.9492L100.83 22.9492Q106.104 22.9492 108.765 20.2637Q111.426 17.5781 111.426 12.207L111.426-64.8438Q111.426-70.3125 108.765-72.9736Q106.104-75.6348 100.83-75.6348L81.6406-75.6348Q76.3672-75.6348 73.7305-72.9736Q71.0938-70.3125 71.0938-64.8438L71.0938 12.207Q71.0938 17.5781 73.7305 20.2637Q76.3672 22.9492 81.6406 22.9492ZM81.8359 19.0918Q78.3691 19.0918 76.6846 17.3096Q75 15.5273 75 12.0117L75-64.6484Q75-68.2129 76.6846-69.9707Q78.3691-71.7285 81.8359-71.7285L100.684-71.7285Q104.15-71.7285 105.811-69.9707Q107.471-68.2129 107.471-64.6484L107.471 12.0117Q107.471 15.5273 105.811 17.3096Q104.15 19.0918 100.684 19.0918ZM136.67 22.9492L155.859 22.9492Q161.133 22.9492 163.794 20.2637Q166.455 17.5781 166.455 12.207L166.455-83.0078Q166.455-88.4277 163.794-91.0889Q161.133-93.75 155.859-93.75L136.67-93.75Q131.445-93.75 128.784-91.0889Q126.123-88.4277 126.123-83.0078L126.123 12.207Q126.123 17.5781 128.784 20.2637Q131.445 22.9492 136.67 22.9492ZM136.865 19.0918Q133.398 19.0918 131.738 17.3096Q130.078 15.5273 130.078 12.0117L130.078-82.8125Q130.078-86.377 131.738-88.1348Q133.398-89.8926 136.865-89.8926L155.762-89.8926Q159.18-89.8926 160.864-88.1348Q162.549-86.377 162.549-82.8125L162.549 12.0117Q162.549 15.5273 160.864 17.3096Q159.18 19.0918 155.762 19.0918Z"/>
  </g>
  <g id="Ultralight-L" transform="matrix(1 0 0 1 469.526 1556)">
   <path d="M25.6836 22.7051L45.3613 22.7051Q50.0977 22.7051 52.5146 20.2148Q54.9316 17.7246 54.9316 12.6953L54.9316-47.8516Q54.9316-52.9297 52.5146-55.3955Q50.0977-57.8613 45.3613-57.8613L25.6836-57.8613Q20.8496-57.8613 18.457-55.3955Q16.0645-52.9297 16.0645-47.8516L16.0645 12.6953Q16.0645 17.7246 18.457 20.2148Q20.8496 22.7051 25.6836 22.7051ZM25.4883 20.0684Q22.1191 20.0684 20.3613 18.2129Q18.6035 16.3574 18.6035 12.8418L18.6035-48.0469Q18.6035-51.6113 20.3613-53.418Q22.1191-55.2246 25.4883-55.2246L45.5078-55.2246Q48.9258-55.2246 50.6592-53.418Q52.3926-51.6113 52.3926-48.0469L52.3926 12.8418Q52.3926 16.3574 50.6592 18.2129Q48.9258 20.0684 45.5078 20.0684ZM80.3223 22.7051L100.049 22.7051Q104.834 22.7051 107.227 20.2148Q109.619 17.7246 109.619 12.6953L109.619-65.4785Q109.619-70.5566 107.227-73.0225Q104.834-75.4883 100.049-75.4883L80.3223-75.4883Q75.5371-75.4883 73.1445-73.0225Q70.752-70.5566 70.752-65.4785L70.752 12.6953Q70.752 17.7246 73.1445 20.2148Q75.5371 22.7051 80.3223 22.7051ZM80.1758 20.0684Q76.7578 20.0684 75.0244 18.2129Q73.291 16.3574 73.291 12.8418L73.291-65.625Q73.291-69.1895 75.0244-71.0205Q76.7578-72.8516 80.1758-72.8516L100.146-72.8516Q103.613-72.8516 105.322-71.0205Q107.031-69.1895 107.031-65.625L107.031 12.8418Q107.031 16.3574 105.322 18.2129Q103.613 20.0684 100.146 20.0684ZM134.961 22.7051L154.688 22.7051Q159.473 22.7051 161.89 20.2148Q164.307 17.7246 164.307 12.6953L164.307-83.5449Q164.307-88.623 161.89-91.0889Q159.473-93.5547 154.688-93.5547L134.961-93.5547Q130.225-93.5547 127.808-91.0889Q125.391-88.623 125.391-83.5449L125.391 12.6953Q125.391 17.7246 127.808 20.2148Q130.225 22.7051 134.961 22.7051ZM134.863 20.0684Q131.445 20.0684 129.712 18.2129Q127.979 16.3574 127.979 12.8418L127.979-83.7402Q127.979-87.3047 129.712-89.1357Q131.445-90.9668 134.863-90.9668L154.883-90.9668Q158.252-90.9668 159.985-89.1357Q161.719-87.3047 161.719-83.7402L161.719 12.8418Q161.719 16.3574 159.985 18.2129Q158.252 20.0684 154.883 20.0684Z"/>
  </g>
  <g id="Black-M" transform="matrix(1 0 0 1 2848.27 1126)">
   <path d="M30.5176 13.1348L38.6719 13.1348Q46.8262 13.1348 51.7822 8.42285Q56.7383 3.71094 56.7383-4.15039L56.7383-37.1582Q56.7383-45.0195 51.7822-49.7559Q46.8262-54.4922 38.6719-54.4922L30.5176-54.4922Q22.3145-54.4922 17.3828-49.7559Q12.4512-45.0195 12.4512-37.1094L12.4512-4.15039Q12.4512 3.71094 17.3828 8.42285Q22.3145 13.1348 30.5176 13.1348ZM33.1055-1.46484Q31.0059-1.46484 29.7607-2.68555Q28.5156-3.90625 28.5156-5.95703L28.5156-35.3516Q28.5156-37.4512 29.7607-38.6719Q31.0059-39.8926 33.1055-39.8926L36.084-39.8926Q38.1836-39.8926 39.4287-38.6719Q40.6738-37.4512 40.6738-35.3516L40.6738-5.95703Q40.6738-3.90625 39.4287-2.68555Q38.1836-1.46484 35.9863-1.46484ZM81.0547 13.1348L89.209 13.1348Q97.3633 13.1348 102.319 8.42285Q107.275 3.71094 107.275-4.15039L107.275-51.6602Q107.275-59.5215 102.319-64.2578Q97.3633-68.9941 89.209-68.9941L81.0547-68.9941Q72.8516-68.9941 67.9199-64.2578Q62.9883-59.5215 62.9883-51.6113L62.9883-4.15039Q62.9883 3.71094 67.9199 8.42285Q72.8516 13.1348 81.0547 13.1348ZM83.6426-1.46484Q81.543-1.46484 80.2979-2.68555Q79.0527-3.90625 79.0527-5.95703L79.0527-49.8535Q79.0527-51.9531 80.2979-53.1738Q81.543-54.3945 83.6426-54.3945L86.6211-54.3945Q88.7207-54.3945 89.9414-53.1738Q91.1621-51.9531 91.1621-49.8535L91.1621-5.95703Q91.1621-3.90625 89.9414-2.68555Q88.7207-1.46484 86.5234-1.46484ZM131.592 13.1348L139.746 13.1348Q147.9 13.1348 152.856 8.42285Q157.812 3.71094 157.812-4.15039L157.812-65.8691Q157.812-73.6816 152.856-78.418Q147.9-83.1543 139.746-83.1543L131.592-83.1543Q123.389-83.1543 118.457-78.418Q113.525-73.6816 113.525-65.7715L113.525-4.15039Q113.525 3.71094 118.457 8.42285Q123.389 13.1348 131.592 13.1348ZM134.18-1.46484Q132.031-1.46484 130.811-2.68555Q129.59-3.90625 129.59-5.95703L129.59-64.0137Q129.59-66.1133 130.811-67.334Q132.031-68.5547 134.18-68.5547L137.109-68.5547Q139.258-68.5547 140.479-67.334Q141.699-66.1133 141.699-64.0137L141.699-5.95703Q141.699-3.90625 140.479-2.68555Q139.258-1.46484 137.061-1.46484Z"/>
  </g>
  <g id="Heavy-M" transform="matrix(1 0 0 1 2554.07 1126)">
   <path d="M28.9551 12.5488L38.2812 12.5488Q45.8984 12.5488 50.3662 8.30078Q54.834 4.05273 54.834-3.22266L54.834-38.2812Q54.834-45.5566 50.3662-49.8291Q45.8984-54.1016 38.2812-54.1016L28.9551-54.1016Q21.3379-54.1016 16.8945-49.8291Q12.4512-45.5566 12.4512-38.2324L12.4512-3.22266Q12.4512 4.05273 16.8945 8.30078Q21.3379 12.5488 28.9551 12.5488ZM31.25-0.341797Q29.0039-0.341797 27.7832-1.53809Q26.5625-2.73438 26.5625-4.93164L26.5625-36.5723Q26.5625-38.8184 27.7832-40.0146Q29.0039-41.2109 31.25-41.2109L36.0352-41.2109Q38.2812-41.2109 39.502-40.0146Q40.7227-38.8184 40.7227-36.5723L40.7227-4.93164Q40.7227-2.73438 39.502-1.53809Q38.2812-0.341797 35.9375-0.341797ZM77.9297 12.5488L87.3047 12.5488Q94.873 12.5488 99.3408 8.30078Q103.809 4.05273 103.809-3.22266L103.809-52.6855Q103.809-59.9609 99.3408-64.2334Q94.873-68.5059 87.3047-68.5059L77.9297-68.5059Q70.3125-68.5059 65.8691-64.2334Q61.4258-59.9609 61.4258-52.6367L61.4258-3.22266Q61.4258 4.05273 65.8691 8.30078Q70.3125 12.5488 77.9297 12.5488ZM80.2246-0.341797Q77.9785-0.341797 76.7578-1.53809Q75.5371-2.73438 75.5371-4.93164L75.5371-50.9766Q75.5371-53.2227 76.7578-54.4189Q77.9785-55.6152 80.2246-55.6152L85.0098-55.6152Q87.2559-55.6152 88.4521-54.4189Q89.6484-53.2227 89.6484-50.9766L89.6484-4.93164Q89.6484-2.73438 88.4521-1.53809Q87.2559-0.341797 84.9121-0.341797ZM126.904 12.5488L136.23 12.5488Q143.848 12.5488 148.315 8.30078Q152.783 4.05273 152.783-3.22266L152.783-66.8945Q152.783-74.1699 148.315-78.4424Q143.848-82.7148 136.23-82.7148L126.904-82.7148Q119.287-82.7148 114.844-78.4424Q110.4-74.1699 110.4-66.8457L110.4-3.22266Q110.4 4.05273 114.844 8.30078Q119.287 12.5488 126.904 12.5488ZM129.199-0.341797Q126.904-0.341797 125.708-1.53809Q124.512-2.73438 124.512-4.93164L124.512-65.1855Q124.512-67.4316 125.708-68.6279Q126.904-69.8242 129.199-69.8242L133.936-69.8242Q136.23-69.8242 137.427-68.6279Q138.623-67.4316 138.623-65.1855L138.623-4.93164Q138.623-2.73438 137.427-1.53809Q136.23-0.341797 133.887-0.341797Z"/>
  </g>
  <g id="Bold-M" transform="matrix(1 0 0 1 2260.17 1126)">
   <path d="M27.2461 11.9141L37.8906 11.9141Q44.8242 11.9141 48.7793 8.20312Q52.7344 4.49219 52.7344-2.19727L52.7344-39.502Q52.7344-46.1426 48.7793-49.9023Q44.8242-53.6621 37.8906-53.6621L27.2461-53.6621Q20.3125-53.6621 16.3818-49.9023Q12.4512-46.1426 12.4512-39.502L12.4512-2.19727Q12.4512 4.49219 16.3818 8.20312Q20.3125 11.9141 27.2461 11.9141ZM29.1992 0.927734Q26.7578 0.927734 25.5615-0.244141Q24.3652-1.41602 24.3652-3.80859L24.3652-37.8906Q24.3652-40.332 25.5615-41.5039Q26.7578-42.6758 29.1992-42.6758L35.9863-42.6758Q38.4277-42.6758 39.624-41.5039Q40.8203-40.332 40.8203-37.8906L40.8203-3.80859Q40.8203-1.41602 39.624-0.244141Q38.4277 0.927734 35.9375 0.927734ZM74.4629 11.9141L85.1562 11.9141Q92.0898 11.9141 96.0205 8.20312Q99.9512 4.49219 99.9512-2.19727L99.9512-53.8574Q99.9512-60.498 96.0205-64.2578Q92.0898-68.0176 85.1562-68.0176L74.4629-68.0176Q67.5293-68.0176 63.5986-64.2578Q59.668-60.498 59.668-53.8574L59.668-2.19727Q59.668 4.49219 63.5986 8.20312Q67.5293 11.9141 74.4629 11.9141ZM76.416 0.927734Q73.9746 0.927734 72.7783-0.244141Q71.582-1.41602 71.582-3.80859L71.582-52.2461Q71.582-54.6875 72.7783-55.8594Q73.9746-57.0312 76.416-57.0312L83.2031-57.0312Q85.6445-57.0312 86.8164-55.8594Q87.9883-54.6875 87.9883-52.2461L87.9883-3.80859Q87.9883-1.41602 86.8164-0.244141Q85.6445 0.927734 83.1543 0.927734ZM121.68 11.9141L132.373 11.9141Q139.307 11.9141 143.237 8.20312Q147.168 4.49219 147.168-2.19727L147.168-68.1152Q147.168-74.707 143.237-78.4668Q139.307-82.2266 132.373-82.2266L121.68-82.2266Q114.746-82.2266 110.84-78.4668Q106.934-74.707 106.934-68.0664L106.934-2.19727Q106.934 4.49219 110.84 8.20312Q114.746 11.9141 121.68 11.9141ZM123.633 0.927734Q121.191 0.927734 120.02-0.244141Q118.848-1.41602 118.848-3.80859L118.848-66.4551Q118.848-68.8965 120.02-70.0684Q121.191-71.2402 123.633-71.2402L130.42-71.2402Q132.91-71.2402 134.082-70.0684Q135.254-68.8965 135.254-66.4551L135.254-3.80859Q135.254-1.41602 134.082-0.244141Q132.91 0.927734 130.371 0.927734Z"/>
  </g>
  <g id="Semibold-M" transform="matrix(1 0 0 1 1965.39 1126)">
   <path d="M26.0742 11.4746L37.5977 11.4746Q44.0918 11.4746 47.6562 8.10547Q51.2207 4.73633 51.2207-1.46484L51.2207-40.332Q51.2207-46.5332 47.6562-49.9268Q44.0918-53.3203 37.5977-53.3203L26.0742-53.3203Q19.5312-53.3203 15.9912-49.9268Q12.4512-46.5332 12.4512-40.332L12.4512-1.46484Q12.4512 4.73633 15.9912 8.10547Q19.5312 11.4746 26.0742 11.4746ZM27.7344 1.80664Q25.1953 1.80664 24.0234 0.65918Q22.8516-0.488281 22.8516-2.97852L22.8516-38.8184Q22.8516-41.3574 24.0234-42.5049Q25.1953-43.6523 27.7344-43.6523L35.9375-43.6523Q38.5254-43.6523 39.6729-42.5049Q40.8203-41.3574 40.8203-38.8184L40.8203-2.97852Q40.8203-0.488281 39.6729 0.65918Q38.5254 1.80664 35.8887 1.80664ZM72.0703 11.4746L83.6426 11.4746Q90.1367 11.4746 93.7012 8.10547Q97.2656 4.73633 97.2656-1.46484L97.2656-54.6387Q97.2656-60.8398 93.7012-64.2334Q90.1367-67.627 83.6426-67.627L72.0703-67.627Q65.5762-67.627 62.0117-64.2334Q58.4473-60.8398 58.4473-54.6387L58.4473-1.46484Q58.4473 4.73633 62.0117 8.10547Q65.5762 11.4746 72.0703 11.4746ZM73.7793 1.80664Q71.1914 1.80664 70.0195 0.65918Q68.8477-0.488281 68.8477-2.97852L68.8477-53.125Q68.8477-55.6641 70.0195-56.8115Q71.1914-57.959 73.7793-57.959L81.9824-57.959Q84.5215-57.959 85.6689-56.8115Q86.8164-55.6641 86.8164-53.125L86.8164-2.97852Q86.8164-0.488281 85.6689 0.65918Q84.5215 1.80664 81.9336 1.80664ZM118.066 11.4746L129.639 11.4746Q136.133 11.4746 139.722 8.10547Q143.311 4.73633 143.311-1.46484L143.311-68.8965Q143.311-75.0977 139.722-78.4668Q136.133-81.8359 129.639-81.8359L118.066-81.8359Q111.621-81.8359 108.057-78.4668Q104.492-75.0977 104.492-68.8477L104.492-1.46484Q104.492 4.73633 108.057 8.10547Q111.621 11.4746 118.066 11.4746ZM119.775 1.80664Q117.236 1.80664 116.064 0.65918Q114.893-0.488281 114.893-2.97852L114.893-67.334Q114.893-69.9219 116.064-71.0449Q117.236-72.168 119.775-72.168L127.93-72.168Q130.566-72.168 131.714-71.0449Q132.861-69.9219 132.861-67.334L132.861-2.97852Q132.861-0.488281 131.714 0.65918Q130.566 1.80664 127.93 1.80664Z"/>
  </g>
  <g id="Medium-M" transform="matrix(1 0 0 1 1670.16 1126)">
   <path d="M25.1465 11.1328L37.4023 11.1328Q43.5547 11.1328 46.8506 8.03223Q50.1465 4.93164 50.1465-0.927734L50.1465-41.0156Q50.1465-46.875 46.8506-49.9756Q43.5547-53.0762 37.4023-53.0762L25.1465-53.0762Q18.9941-53.0762 15.7227-49.9756Q12.4512-46.875 12.4512-41.0156L12.4512-0.927734Q12.4512 4.93164 15.7227 8.03223Q18.9941 11.1328 25.1465 11.1328ZM26.6602 2.44141Q23.9746 2.44141 22.8516 1.31836Q21.7285 0.195312 21.7285-2.39258L21.7285-39.502Q21.7285-42.1875 22.8516-43.3105Q23.9746-44.4336 26.6602-44.4336L35.8887-44.4336Q38.5742-44.4336 39.7217-43.3105Q40.8691-42.1875 40.8691-39.502L40.8691-2.39258Q40.8691 0.195312 39.7217 1.31836Q38.5742 2.44141 35.8887 2.44141ZM70.2637 11.1328L82.5195 11.1328Q88.6719 11.1328 91.9434 8.03223Q95.2148 4.93164 95.2148-0.927734L95.2148-55.2734Q95.2148-61.1328 91.9434-64.2334Q88.6719-67.334 82.5195-67.334L70.2637-67.334Q64.0625-67.334 60.791-64.2334Q57.5195-61.1328 57.5195-55.2734L57.5195-0.927734Q57.5195 4.93164 60.791 8.03223Q64.0625 11.1328 70.2637 11.1328ZM71.7773 2.44141Q69.0918 2.44141 67.9443 1.31836Q66.7969 0.195312 66.7969-2.39258L66.7969-53.7598Q66.7969-56.3965 67.9443-57.5439Q69.0918-58.6914 71.7773-58.6914L81.0059-58.6914Q83.6914-58.6914 84.8145-57.5439Q85.9375-56.3965 85.9375-53.7598L85.9375-2.39258Q85.9375 0.195312 84.8145 1.31836Q83.6914 2.44141 81.0059 2.44141ZM115.332 11.1328L127.637 11.1328Q133.789 11.1328 137.061 8.03223Q140.332 4.93164 140.332-0.927734L140.332-69.5312Q140.332-75.3418 137.061-78.4668Q133.789-81.5918 127.637-81.5918L115.332-81.5918Q109.229-81.5918 105.957-78.4668Q102.686-75.3418 102.686-69.4824L102.686-0.927734Q102.686 4.93164 105.957 8.03223Q109.229 11.1328 115.332 11.1328ZM116.895 2.44141Q114.209 2.44141 113.062 1.31836Q111.914 0.195312 111.914-2.39258L111.914-68.0176Q111.914-70.6543 113.062-71.7773Q114.209-72.9004 116.895-72.9004L126.074-72.9004Q128.809-72.9004 129.956-71.7773Q131.104-70.6543 131.104-68.0176L131.104-2.39258Q131.104 0.195312 129.956 1.31836Q128.809 2.44141 126.074 2.44141Z"/>
  </g>
  <g id="Regular-M" transform="matrix(1 0 0 1 1375.36 1126)">
   <path d="M23.9746 10.6934L37.1094 10.6934Q42.8223 10.6934 45.752 7.95898Q48.6816 5.22461 48.6816-0.195312L48.6816-41.8457Q48.6816-47.2656 45.752-50.0244Q42.8223-52.7832 37.1094-52.7832L23.9746-52.7832Q18.2617-52.7832 15.3564-50.0244Q12.4512-47.2656 12.4512-41.8457L12.4512-0.195312Q12.4512 5.22461 15.3564 7.95898Q18.2617 10.6934 23.9746 10.6934ZM25.2441 3.32031Q22.4609 3.32031 21.3379 2.22168Q20.2148 1.12305 20.2148-1.61133L20.2148-40.4297Q20.2148-43.2129 21.3379-44.3115Q22.4609-45.4102 25.2441-45.4102L35.8398-45.4102Q38.6719-45.4102 39.7949-44.3115Q40.918-43.2129 40.918-40.4297L40.918-1.61133Q40.918 1.12305 39.7949 2.22168Q38.6719 3.32031 35.8398 3.32031ZM67.8711 10.6934L81.0547 10.6934Q86.7676 10.6934 89.6729 7.95898Q92.5781 5.22461 92.5781-0.195312L92.5781-56.0547Q92.5781-61.4746 89.6729-64.2334Q86.7676-66.9922 81.0547-66.9922L67.8711-66.9922Q62.1582-66.9922 59.2529-64.2334Q56.3477-61.4746 56.3477-56.0547L56.3477-0.195312Q56.3477 5.22461 59.2529 7.95898Q62.1582 10.6934 67.8711 10.6934ZM69.1895 3.32031Q66.3574 3.32031 65.2344 2.22168Q64.1113 1.12305 64.1113-1.61133L64.1113-54.6387Q64.1113-57.373 65.2344-58.4961Q66.3574-59.6191 69.1895-59.6191L79.7852-59.6191Q82.5684-59.6191 83.6914-58.4961Q84.8145-57.373 84.8145-54.6387L84.8145-1.61133Q84.8145 1.12305 83.6914 2.22168Q82.5684 3.32031 79.7852 3.32031ZM111.768 10.6934L124.951 10.6934Q130.664 10.6934 133.594 7.95898Q136.523 5.22461 136.523-0.195312L136.523-70.3125Q136.523-75.7324 133.594-78.4912Q130.664-81.25 124.951-81.25L111.768-81.25Q106.104-81.25 103.198-78.4912Q100.293-75.7324 100.293-70.3125L100.293-0.195312Q100.293 5.22461 103.198 7.95898Q106.104 10.6934 111.768 10.6934ZM113.086 3.32031Q110.303 3.32031 109.18 2.22168Q108.057 1.12305 108.057-1.61133L108.057-68.8965Q108.057-71.6797 109.18-72.7783Q110.303-73.877 113.086-73.877L123.682-73.877Q126.514-73.877 127.637-72.7783Q128.76-71.6797 128.76-68.8965L128.76-1.61133Q128.76 1.12305 127.637 2.22168Q126.514 3.32031 123.682 3.32031Z"/>
  </g>
  <g id="Light-M" transform="matrix(1 0 0 1 1080.06 1126)">
   <path d="M22.7051 10.3516L36.5234 10.3516Q41.6016 10.3516 44.1895 7.88574Q46.7773 5.41992 46.7773 0.439453L46.7773-42.8223Q46.7773-47.8027 44.1895-50.293Q41.6016-52.7832 36.5234-52.7832L22.7051-52.7832Q17.627-52.7832 15.0391-50.293Q12.4512-47.8027 12.4512-42.8223L12.4512 0.439453Q12.4512 5.41992 15.0391 7.88574Q17.627 10.3516 22.7051 10.3516ZM23.5352 4.63867Q20.8008 4.63867 19.6045 3.44238Q18.4082 2.24609 18.4082-0.488281L18.4082-41.8945Q18.4082-44.6777 19.6045-45.874Q20.8008-47.0703 23.5352-47.0703L35.6445-47.0703Q38.4277-47.0703 39.624-45.874Q40.8203-44.6777 40.8203-41.8945L40.8203-0.488281Q40.8203 2.24609 39.624 3.44238Q38.4277 4.63867 35.6445 4.63867ZM66.1133 10.3516L79.9805 10.3516Q85.0586 10.3516 87.6465 7.88574Q90.2344 5.41992 90.2344 0.439453L90.2344-56.8848Q90.2344-61.8164 87.6465-64.3311Q85.0586-66.8457 79.9805-66.8457L66.1133-66.8457Q61.0352-66.8457 58.4473-64.3311Q55.8594-61.8164 55.8594-56.8848L55.8594 0.439453Q55.8594 5.41992 58.4473 7.88574Q61.0352 10.3516 66.1133 10.3516ZM66.9922 4.63867Q64.209 4.63867 63.0371 3.44238Q61.8652 2.24609 61.8652-0.488281L61.8652-55.9082Q61.8652-58.6914 63.0371-59.8877Q64.209-61.084 66.9922-61.084L79.1016-61.084Q81.8359-61.084 83.0322-59.8877Q84.2285-58.6914 84.2285-55.9082L84.2285-0.488281Q84.2285 2.24609 83.0322 3.44238Q81.8359 4.63867 79.1016 4.63867ZM109.57 10.3516L123.389 10.3516Q128.467 10.3516 131.079 7.88574Q133.691 5.41992 133.691 0.439453L133.691-71.0449Q133.691-76.0254 131.079-78.5156Q128.467-81.0059 123.389-81.0059L109.57-81.0059Q104.492-81.0059 101.904-78.5156Q99.3164-76.0254 99.3164-71.0449L99.3164 0.439453Q99.3164 5.41992 101.904 7.88574Q104.492 10.3516 109.57 10.3516ZM110.4 4.63867Q107.666 4.63867 106.494 3.44238Q105.322 2.24609 105.322-0.488281L105.322-70.1172Q105.322-72.9004 106.494-74.0967Q107.666-75.293 110.4-75.293L122.559-75.293Q125.342-75.293 126.514-74.0967Q127.686-72.9004 127.686-70.1172L127.686-0.488281Q127.686 2.24609 126.514 3.44238Q125.342 4.63867 122.559 4.63867Z"/>
  </g>
  <g id="Thin-M" transform="matrix(1 0 0 1 785.231 1126)">
   <path d="M21.0449 9.96094L35.6934 9.96094Q39.9902 9.96094 42.1387 7.8125Q44.2871 5.66406 44.2871 1.26953L44.2871-44.1406Q44.2871-48.4375 42.1387-50.6104Q39.9902-52.7832 35.6934-52.7832L21.0449-52.7832Q16.748-52.7832 14.5996-50.6104Q12.4512-48.4375 12.4512-44.1406L12.4512 1.26953Q12.4512 5.66406 14.5996 7.8125Q16.748 9.96094 21.0449 9.96094ZM21.2891 6.39648Q18.6035 6.39648 17.334 5.07812Q16.0645 3.75977 16.0645 0.976562L16.0645-43.8477Q16.0645-46.582 17.334-47.9004Q18.6035-49.2188 21.2891-49.2188L35.4004-49.2188Q38.1348-49.2188 39.4043-47.9004Q40.6738-46.582 40.6738-43.8477L40.6738 0.976562Q40.6738 3.75977 39.4043 5.07812Q38.1348 6.39648 35.4004 6.39648ZM63.8184 9.96094L78.5156 9.96094Q82.8125 9.96094 84.9609 7.8125Q87.1094 5.66406 87.1094 1.26953L87.1094-57.959Q87.1094-62.3047 84.9609-64.4531Q82.8125-66.6016 78.5156-66.6016L63.8184-66.6016Q59.5703-66.6016 57.4219-64.4531Q55.2734-62.3047 55.2734-57.959L55.2734 1.26953Q55.2734 5.66406 57.4219 7.8125Q59.5703 9.96094 63.8184 9.96094ZM64.1113 6.39648Q61.377 6.39648 60.1318 5.07812Q58.8867 3.75977 58.8867 0.976562L58.8867-57.6172Q58.8867-60.4004 60.1318-61.7432Q61.377-63.0859 64.1113-63.0859L78.2227-63.0859Q80.9082-63.0859 82.2021-61.7432Q83.4961-60.4004 83.4961-57.6172L83.4961 0.976562Q83.4961 3.75977 82.2021 5.07812Q80.9082 6.39648 78.2227 6.39648ZM106.641 9.96094L121.289 9.96094Q125.586 9.96094 127.759 7.8125Q129.932 5.66406 129.932 1.26953L129.932-72.0215Q129.932-76.3672 127.759-78.5156Q125.586-80.6641 121.289-80.6641L106.641-80.6641Q102.393-80.6641 100.22-78.5156Q98.0469-76.3672 98.0469-72.0215L98.0469 1.26953Q98.0469 5.66406 100.22 7.8125Q102.393 9.96094 106.641 9.96094ZM106.885 6.39648Q104.199 6.39648 102.93 5.07812Q101.66 3.75977 101.66 0.976562L101.66-71.7285Q101.66-74.5117 102.93-75.8301Q104.199-77.1484 106.885-77.1484L121.045-77.1484Q123.73-77.1484 125.024-75.8301Q126.318-74.5117 126.318-71.7285L126.318 0.976562Q126.318 3.75977 125.024 5.07812Q123.73 6.39648 121.045 6.39648Z"/>
  </g>
  <g id="Ultralight-M" transform="matrix(1 0 0 1 489.496 1126)">
   <path d="M20.166 9.7168L35.3027 9.7168Q39.1602 9.7168 41.0889 7.73926Q43.0176 5.76172 43.0176 1.70898L43.0176-44.7754Q43.0176-48.8281 41.0889-50.8057Q39.1602-52.7832 35.3027-52.7832L20.166-52.7832Q16.3086-52.7832 14.3799-50.8057Q12.4512-48.8281 12.4512-44.7754L12.4512 1.70898Q12.4512 5.76172 14.3799 7.73926Q16.3086 9.7168 20.166 9.7168ZM20.166 7.32422Q17.4805 7.32422 16.1621 5.93262Q14.8438 4.54102 14.8438 1.75781L14.8438-44.8242Q14.8438-47.5586 16.1621-48.9502Q17.4805-50.3418 20.166-50.3418L35.3027-50.3418Q37.9883-50.3418 39.2822-48.9502Q40.5762-47.5586 40.5762-44.8242L40.5762 1.75781Q40.5762 4.54102 39.2822 5.93262Q37.9883 7.32422 35.3027 7.32422ZM62.6465 9.7168L77.7832 9.7168Q81.6406 9.7168 83.5693 7.73926Q85.498 5.76172 85.498 1.70898L85.498-58.4961Q85.498-62.5 83.5693-64.502Q81.6406-66.5039 77.7832-66.5039L62.6465-66.5039Q58.7891-66.5039 56.8604-64.502Q54.9316-62.5 54.9316-58.4961L54.9316 1.70898Q54.9316 5.76172 56.8604 7.73926Q58.7891 9.7168 62.6465 9.7168ZM62.5977 7.32422Q59.9609 7.32422 58.6426 5.93262Q57.3242 4.54102 57.3242 1.75781L57.3242-58.4961Q57.3242-61.2793 58.6426-62.6709Q59.9609-64.0625 62.5977-64.0625L77.7832-64.0625Q80.4199-64.0625 81.7627-62.6709Q83.1055-61.2793 83.1055-58.4961L83.1055 1.75781Q83.1055 4.54102 81.7627 5.93262Q80.4199 7.32422 77.7832 7.32422ZM105.127 9.7168L120.215 9.7168Q124.072 9.7168 126.025 7.73926Q127.979 5.76172 127.979 1.70898L127.979-72.5098Q127.979-76.5625 126.025-78.5156Q124.072-80.4688 120.215-80.4688L105.127-80.4688Q101.27-80.4688 99.3164-78.5156Q97.3633-76.5625 97.3633-72.5098L97.3633 1.70898Q97.3633 5.76172 99.3164 7.73926Q101.27 9.7168 105.127 9.7168ZM105.078 7.32422Q102.441 7.32422 101.123 5.93262Q99.8047 4.54102 99.8047 1.75781L99.8047-72.5098Q99.8047-75.293 101.123-76.6846Q102.441-78.0762 105.078-78.0762L120.264-78.0762Q122.949-78.0762 124.268-76.6846Q125.586-75.293 125.586-72.5098L125.586 1.75781Q125.586 4.54102 124.268 5.93262Q122.949 7.32422 120.264 7.32422Z"/>
  </g>
  <g id="Black-S" transform="matrix(1 0 0 1 2866.02 696)">
   <path d="M24.3164 2.83203L30.3711 2.83203Q36.9141 2.83203 40.918-1.00098Q44.9219-4.83398 44.9219-11.1328L44.9219-36.4746Q44.9219-42.7734 40.918-46.6064Q36.9141-50.4395 30.3711-50.4395L24.3164-50.4395Q17.7734-50.4395 13.7695-46.6064Q9.76562-42.7734 9.76562-36.4258L9.76562-11.1328Q9.76562-4.83398 13.7695-1.00098Q17.7734 2.83203 24.3164 2.83203ZM26.416-9.0332Q24.8047-9.0332 23.8281-10.0098Q22.8516-10.9863 22.8516-12.5488L22.8516-35.0586Q22.8516-36.6211 23.8281-37.5977Q24.8047-38.5742 26.416-38.5742L28.2715-38.5742Q29.8828-38.5742 30.8594-37.5977Q31.8359-36.6211 31.8359-35.0586L31.8359-12.5488Q31.8359-10.9863 30.8594-10.0098Q29.8828-9.0332 28.2227-9.0332ZM64.3555 2.83203L70.4102 2.83203Q76.9531 2.83203 80.957-1.00098Q84.9609-4.83398 84.9609-11.1328L84.9609-47.8516Q84.9609-54.1504 80.957-57.9834Q76.9531-61.8164 70.4102-61.8164L64.3555-61.8164Q57.8125-61.8164 53.8086-57.9834Q49.8047-54.1504 49.8047-47.8027L49.8047-11.1328Q49.8047-4.83398 53.8086-1.00098Q57.8125 2.83203 64.3555 2.83203ZM66.4551-9.0332Q64.8438-9.0332 63.8672-10.0098Q62.8906-10.9863 62.8906-12.5488L62.8906-46.4355Q62.8906-47.998 63.8672-48.9746Q64.8438-49.9512 66.4551-49.9512L68.3105-49.9512Q69.9219-49.9512 70.8984-48.9746Q71.875-47.998 71.875-46.4355L71.875-12.5488Q71.875-10.9863 70.8984-10.0098Q69.9219-9.0332 68.2617-9.0332ZM104.395 2.83203L110.449 2.83203Q116.992 2.83203 120.996-1.00098Q125-4.83398 125-11.1328L125-58.9355Q125-65.2344 120.996-69.0674Q116.992-72.9004 110.449-72.9004L104.395-72.9004Q97.8516-72.9004 93.8477-69.0674Q89.8438-65.2344 89.8438-58.8867L89.8438-11.1328Q89.8438-4.83398 93.8477-1.00098Q97.8516 2.83203 104.395 2.83203ZM106.494-9.0332Q104.883-9.0332 103.906-10.0098Q102.93-10.9863 102.93-12.5488L102.93-57.5195Q102.93-59.082 103.906-60.0586Q104.883-61.0352 106.494-61.0352L108.35-61.0352Q109.961-61.0352 110.938-60.0586Q111.914-59.082 111.914-57.5195L111.914-12.5488Q111.914-10.9863 110.938-10.0098Q109.961-9.0332 108.301-9.0332Z"/>
  </g>
  <g id="Heavy-S" transform="matrix(1 0 0 1 2571.26 696)">
   <path d="M23.1445 2.39258L30.127 2.39258Q36.2793 2.39258 39.917-1.07422Q43.5547-4.54102 43.5547-10.4004L43.5547-37.3047Q43.5547-43.1641 39.917-46.6309Q36.2793-50.0977 30.127-50.0977L23.1445-50.0977Q17.041-50.0977 13.4033-46.6309Q9.76562-43.1641 9.76562-37.2559L9.76562-10.4004Q9.76562-4.54102 13.4033-1.07422Q17.041 2.39258 23.1445 2.39258ZM25.0488-8.25195Q23.291-8.25195 22.3389-9.17969Q21.3867-10.1074 21.3867-11.8164L21.3867-35.8887Q21.3867-37.5977 22.3389-38.5254Q23.291-39.4531 25.0488-39.4531L28.2715-39.4531Q30.0293-39.4531 30.957-38.5254Q31.8848-37.5977 31.8848-35.8887L31.8848-11.8164Q31.8848-10.1074 30.957-9.17969Q30.0293-8.25195 28.2227-8.25195ZM61.9141 2.39258L68.8965 2.39258Q75.0488 2.39258 78.6621-1.07422Q82.2754-4.54102 82.2754-10.4004L82.2754-48.6328Q82.2754-54.4922 78.6621-57.959Q75.0488-61.4258 68.8965-61.4258L61.9141-61.4258Q55.8105-61.4258 52.1729-57.959Q48.5352-54.4922 48.5352-48.584L48.5352-10.4004Q48.5352-4.54102 52.1729-1.07422Q55.8105 2.39258 61.9141 2.39258ZM63.8184-8.25195Q62.0605-8.25195 61.1084-9.17969Q60.1562-10.1074 60.1562-11.8164L60.1562-47.2168Q60.1562-48.9258 61.1084-49.8779Q62.0605-50.8301 63.8184-50.8301L67.041-50.8301Q68.75-50.8301 69.7021-49.8779Q70.6543-48.9258 70.6543-47.2168L70.6543-11.8164Q70.6543-10.1074 69.7021-9.17969Q68.75-8.25195 66.9922-8.25195ZM100.684 2.39258L107.666 2.39258Q113.818 2.39258 117.456-1.07422Q121.094-4.54102 121.094-10.4004L121.094-59.7656Q121.094-65.625 117.456-69.0918Q113.818-72.5586 107.666-72.5586L100.684-72.5586Q94.5312-72.5586 90.918-69.0918Q87.3047-65.625 87.3047-59.7168L87.3047-10.4004Q87.3047-4.54102 90.918-1.07422Q94.5312 2.39258 100.684 2.39258ZM102.588-8.25195Q100.83-8.25195 99.8779-9.17969Q98.9258-10.1074 98.9258-11.8164L98.9258-58.3496Q98.9258-60.0586 99.8779-60.9863Q100.83-61.9141 102.588-61.9141L105.762-61.9141Q107.52-61.9141 108.472-60.9863Q109.424-60.0586 109.424-58.3496L109.424-11.8164Q109.424-10.1074 108.472-9.17969Q107.52-8.25195 105.762-8.25195Z"/>
  </g>
  <g id="Bold-S" transform="matrix(1 0 0 1 2276.75 696)">
   <path d="M21.875 1.9043L29.8828 1.9043Q35.5469 1.9043 38.7695-1.17188Q41.9922-4.24805 41.9922-9.61914L41.9922-38.2324Q41.9922-43.6035 38.7695-46.6553Q35.5469-49.707 29.8828-49.707L21.875-49.707Q16.2109-49.707 12.9883-46.6553Q9.76562-43.6035 9.76562-38.1836L9.76562-9.61914Q9.76562-4.24805 12.9883-1.17188Q16.2109 1.9043 21.875 1.9043ZM23.5352-7.37305Q21.6309-7.37305 20.7031-8.25195Q19.7754-9.13086 19.7754-10.9863L19.7754-36.8652Q19.7754-38.7207 20.7031-39.5996Q21.6309-40.4785 23.5352-40.4785L28.2227-40.4785Q30.1758-40.4785 31.0791-39.5996Q31.9824-38.7207 31.9824-36.8652L31.9824-10.9863Q31.9824-9.13086 31.0791-8.25195Q30.1758-7.37305 28.2227-7.37305ZM59.1797 1.9043L67.2363 1.9043Q72.9004 1.9043 76.123-1.17188Q79.3457-4.24805 79.3457-9.61914L79.3457-49.5117Q79.3457-54.8828 76.123-57.9346Q72.9004-60.9863 67.2363-60.9863L59.1797-60.9863Q53.5645-60.9863 50.3418-57.9346Q47.1191-54.8828 47.1191-49.5117L47.1191-9.61914Q47.1191-4.24805 50.3418-1.17188Q53.5645 1.9043 59.1797 1.9043ZM60.8887-7.37305Q58.9355-7.37305 58.0322-8.25195Q57.1289-9.13086 57.1289-10.9863L57.1289-48.1445Q57.1289-50 58.0322-50.9033Q58.9355-51.8066 60.8887-51.8066L65.5762-51.8066Q67.4805-51.8066 68.4082-50.9033Q69.3359-50 69.3359-48.1445L69.3359-10.9863Q69.3359-9.13086 68.4082-8.25195Q67.4805-7.37305 65.5762-7.37305ZM96.5332 1.9043L104.59 1.9043Q110.254 1.9043 113.477-1.17188Q116.699-4.24805 116.699-9.61914L116.699-60.6445Q116.699-66.0645 113.477-69.1162Q110.254-72.168 104.59-72.168L96.5332-72.168Q90.8691-72.168 87.6709-69.1162Q84.4727-66.0645 84.4727-60.6445L84.4727-9.61914Q84.4727-4.24805 87.6709-1.17188Q90.8691 1.9043 96.5332 1.9043ZM98.2422-7.37305Q96.2891-7.37305 95.3857-8.25195Q94.4824-9.13086 94.4824-10.9863L94.4824-59.2773Q94.4824-61.1328 95.3857-62.0361Q96.2891-62.9395 98.2422-62.9395L102.93-62.9395Q104.834-62.9395 105.762-62.0361Q106.689-61.1328 106.689-59.2773L106.689-10.9863Q106.689-9.13086 105.762-8.25195Q104.834-7.37305 102.881-7.37305Z"/>
  </g>
  <g id="Semibold-S" transform="matrix(1 0 0 1 1981.57 696)">
   <path d="M20.9473 1.51367L29.6875 1.51367Q35.0586 1.51367 37.9883-1.24512Q40.918-4.00391 40.918-9.08203L40.918-38.8184Q40.918-43.8965 37.9883-46.6797Q35.0586-49.4629 29.6875-49.4629L20.9473-49.4629Q15.625-49.4629 12.6953-46.6797Q9.76562-43.8965 9.76562-38.8184L9.76562-9.08203Q9.76562-4.00391 12.6953-1.24512Q15.625 1.51367 20.9473 1.51367ZM22.5098-6.73828Q20.459-6.73828 19.5557-7.59277Q18.6523-8.44727 18.6523-10.4004L18.6523-37.5Q18.6523-39.4531 19.5557-40.3076Q20.459-41.1621 22.5098-41.1621L28.2227-41.1621Q30.2734-41.1621 31.1523-40.3076Q32.0312-39.4531 32.0312-37.5L32.0312-10.4004Q32.0312-8.44727 31.1523-7.59277Q30.2734-6.73828 28.1738-6.73828ZM57.2754 1.51367L66.0645 1.51367Q71.3867 1.51367 74.3164-1.24512Q77.2461-4.00391 77.2461-9.08203L77.2461-50.0977Q77.2461-55.127 74.3164-57.9102Q71.3867-60.6934 66.0645-60.6934L57.2754-60.6934Q52.002-60.6934 49.0479-57.9102Q46.0938-55.127 46.0938-50.0977L46.0938-9.08203Q46.0938-4.00391 49.0479-1.24512Q52.002 1.51367 57.2754 1.51367ZM58.8379-6.73828Q56.7871-6.73828 55.9082-7.59277Q55.0293-8.44727 55.0293-10.4004L55.0293-48.7305Q55.0293-50.6836 55.9082-51.5625Q56.7871-52.4414 58.8379-52.4414L64.5996-52.4414Q66.6016-52.4414 67.4805-51.5625Q68.3594-50.6836 68.3594-48.7305L68.3594-10.4004Q68.3594-8.44727 67.4805-7.59277Q66.6016-6.73828 64.5508-6.73828ZM93.6523 1.51367L102.441 1.51367Q107.764 1.51367 110.693-1.24512Q113.623-4.00391 113.623-9.08203L113.623-61.2793Q113.623-66.3574 110.693-69.1162Q107.764-71.875 102.441-71.875L93.6523-71.875Q88.3301-71.875 85.4004-69.1162Q82.4707-66.3574 82.4707-61.2305L82.4707-9.08203Q82.4707-4.00391 85.4004-1.24512Q88.3301 1.51367 93.6523 1.51367ZM95.2148-6.73828Q93.1641-6.73828 92.2607-7.59277Q91.3574-8.44727 91.3574-10.4004L91.3574-59.9121Q91.3574-61.8652 92.2607-62.7441Q93.1641-63.623 95.2148-63.623L100.928-63.623Q102.979-63.623 103.857-62.7441Q104.736-61.8652 104.736-59.9121L104.736-10.4004Q104.736-8.44727 103.857-7.59277Q102.979-6.73828 100.928-6.73828Z"/>
  </g>
  <g id="Medium-S" transform="matrix(1 0 0 1 1686.01 696)">
   <path d="M20.2637 1.26953L29.5898 1.26953Q34.668 1.26953 37.4023-1.26953Q40.1367-3.80859 40.1367-8.64258L40.1367-39.3066Q40.1367-44.1406 37.4023-46.6797Q34.668-49.2188 29.5898-49.2188L20.2637-49.2188Q15.1855-49.2188 12.4756-46.6797Q9.76562-44.1406 9.76562-39.3066L9.76562-8.64258Q9.76562-3.80859 12.4756-1.26953Q15.1855 1.26953 20.2637 1.26953ZM21.6797-6.25Q19.5801-6.25 18.7012-7.10449Q17.8223-7.95898 17.8223-10.0098L17.8223-37.9883Q17.8223-40.0391 18.7012-40.8691Q19.5801-41.6992 21.6797-41.6992L28.1738-41.6992Q30.3223-41.6992 31.2012-40.8691Q32.0801-40.0391 32.0801-37.9883L32.0801-10.0098Q32.0801-7.95898 31.2012-7.10449Q30.3223-6.25 28.1738-6.25ZM55.8594 1.26953L65.1855 1.26953Q70.2637 1.26953 72.998-1.26953Q75.7324-3.80859 75.7324-8.64258L75.7324-50.5859Q75.7324-55.3711 72.998-57.9102Q70.2637-60.4492 65.1855-60.4492L55.8594-60.4492Q50.7812-60.4492 48.0713-57.9102Q45.3613-55.3711 45.3613-50.5859L45.3613-8.64258Q45.3613-3.80859 48.0713-1.26953Q50.7812 1.26953 55.8594 1.26953ZM57.2754-6.25Q55.1758-6.25 54.2969-7.10449Q53.418-7.95898 53.418-10.0098L53.418-49.2188Q53.418-51.2207 54.2969-52.0996Q55.1758-52.9785 57.2754-52.9785L63.8184-52.9785Q65.918-52.9785 66.7969-52.0996Q67.6758-51.2207 67.6758-49.2188L67.6758-10.0098Q67.6758-7.95898 66.7969-7.10449Q65.918-6.25 63.8184-6.25ZM91.5039 1.26953L100.781 1.26953Q105.908 1.26953 108.618-1.26953Q111.328-3.80859 111.328-8.64258L111.328-61.7188Q111.328-66.5527 108.618-69.1162Q105.908-71.6797 100.781-71.6797L91.5039-71.6797Q86.377-71.6797 83.6914-69.1162Q81.0059-66.5527 81.0059-61.7188L81.0059-8.64258Q81.0059-3.80859 83.6914-1.26953Q86.377 1.26953 91.5039 1.26953ZM92.9199-6.25Q90.7715-6.25 89.8926-7.10449Q89.0137-7.95898 89.0137-10.0098L89.0137-60.4004Q89.0137-62.4512 89.8926-63.2812Q90.7715-64.1113 92.9199-64.1113L99.4141-64.1113Q101.562-64.1113 102.441-63.2812Q103.32-62.4512 103.32-60.4004L103.32-10.0098Q103.32-7.95898 102.441-7.10449Q101.562-6.25 99.4141-6.25Z"/>
  </g>
  <g id="Regular-S" transform="matrix(1 0 0 1 1390.79 696)">
   <path d="M19.3848 0.927734L29.3945 0.927734Q34.1797 0.927734 36.6211-1.34277Q39.0625-3.61328 39.0625-8.10547L39.0625-39.9414Q39.0625-44.4336 36.6211-46.7041Q34.1797-48.9746 29.3945-48.9746L19.3848-48.9746Q14.5996-48.9746 12.1826-46.7041Q9.76562-44.4336 9.76562-39.9414L9.76562-8.10547Q9.76562-3.61328 12.1826-1.34277Q14.5996 0.927734 19.3848 0.927734ZM20.6543-5.66406Q18.4082-5.66406 17.5537-6.46973Q16.6992-7.27539 16.6992-9.42383L16.6992-38.623Q16.6992-40.7715 17.5537-41.5771Q18.4082-42.3828 20.6543-42.3828L28.1738-42.3828Q30.4199-42.3828 31.2744-41.5771Q32.1289-40.7715 32.1289-38.623L32.1289-9.42383Q32.1289-7.27539 31.2744-6.46973Q30.4199-5.66406 28.1738-5.66406ZM54.0039 0.927734L64.0625 0.927734Q68.7988 0.927734 71.2402-1.34277Q73.6816-3.61328 73.6816-8.10547L73.6816-51.1719Q73.6816-55.6152 71.2402-57.8857Q68.7988-60.1562 64.0625-60.1562L54.0039-60.1562Q49.2676-60.1562 46.8262-57.8857Q44.3848-55.6152 44.3848-51.1719L44.3848-8.10547Q44.3848-3.61328 46.8262-1.34277Q49.2676 0.927734 54.0039 0.927734ZM55.2734-5.66406Q53.0273-5.66406 52.1973-6.46973Q51.3672-7.27539 51.3672-9.42383L51.3672-49.8047Q51.3672-51.9531 52.1973-52.7832Q53.0273-53.6133 55.2734-53.6133L62.8418-53.6133Q65.0391-53.6133 65.8936-52.7832Q66.748-51.9531 66.748-49.8047L66.748-9.42383Q66.748-7.27539 65.8936-6.46973Q65.0391-5.66406 62.8418-5.66406ZM88.6719 0.927734L98.6816 0.927734Q103.467 0.927734 105.908-1.34277Q108.35-3.61328 108.35-8.10547L108.35-62.3535Q108.35-66.8457 105.908-69.1162Q103.467-71.3867 98.6816-71.3867L88.6719-71.3867Q83.8867-71.3867 81.4697-69.1162Q79.0527-66.8457 79.0527-62.3535L79.0527-8.10547Q79.0527-3.61328 81.4697-1.34277Q83.8867 0.927734 88.6719 0.927734ZM89.9414-5.66406Q87.6953-5.66406 86.8408-6.46973Q85.9863-7.27539 85.9863-9.42383L85.9863-61.0352Q85.9863-63.1836 86.8408-63.9893Q87.6953-64.7949 89.9414-64.7949L97.4609-64.7949Q99.707-64.7949 100.562-63.9893Q101.416-63.1836 101.416-61.0352L101.416-9.42383Q101.416-7.27539 100.562-6.46973Q99.707-5.66406 97.4609-5.66406Z"/>
  </g>
  <g id="Light-S" transform="matrix(1 0 0 1 1095.35 696)">
   <path d="M18.2617 0.634766L28.8574 0.634766Q33.1055 0.634766 35.2539-1.41602Q37.4023-3.4668 37.4023-7.51953L37.4023-40.8203Q37.4023-44.873 35.2539-46.9238Q33.1055-48.9746 28.8574-48.9746L18.2617-48.9746Q14.0625-48.9746 11.9141-46.9238Q9.76562-44.873 9.76562-40.8203L9.76562-7.51953Q9.76562-3.4668 11.9141-1.41602Q14.0625 0.634766 18.2617 0.634766ZM19.1406-4.49219Q16.9434-4.49219 16.04-5.39551Q15.1367-6.29883 15.1367-8.44727L15.1367-39.8926Q15.1367-42.041 16.04-42.9443Q16.9434-43.8477 19.1406-43.8477L28.0273-43.8477Q30.2246-43.8477 31.1279-42.9443Q32.0312-42.041 32.0312-39.8926L32.0312-8.44727Q32.0312-6.29883 31.1279-5.39551Q30.2246-4.49219 28.0273-4.49219ZM52.4902 0.634766L63.0859 0.634766Q67.2852 0.634766 69.4336-1.41602Q71.582-3.4668 71.582-7.51953L71.582-51.9043Q71.582-55.957 69.4336-57.9834Q67.2852-60.0098 63.0859-60.0098L52.4902-60.0098Q48.291-60.0098 46.1182-57.9834Q43.9453-55.957 43.9453-51.9043L43.9453-7.51953Q43.9453-3.4668 46.1182-1.41602Q48.291 0.634766 52.4902 0.634766ZM53.3203-4.49219Q51.1719-4.49219 50.2686-5.39551Q49.3652-6.29883 49.3652-8.44727L49.3652-50.9766Q49.3652-53.125 50.2686-54.0283Q51.1719-54.9316 53.3203-54.9316L62.2559-54.9316Q64.4043-54.9316 65.3076-54.0283Q66.2109-53.125 66.2109-50.9766L66.2109-8.44727Q66.2109-6.29883 65.3076-5.39551Q64.4043-4.49219 62.2559-4.49219ZM86.7188 0.634766L97.2656 0.634766Q101.514 0.634766 103.662-1.41602Q105.811-3.4668 105.811-7.51953L105.811-62.9883Q105.811-67.0898 103.662-69.1406Q101.514-71.1914 97.2656-71.1914L86.7188-71.1914Q82.4707-71.1914 80.3467-69.1406Q78.2227-67.0898 78.2227-62.9883L78.2227-7.51953Q78.2227-3.4668 80.3467-1.41602Q82.4707 0.634766 86.7188 0.634766ZM87.5977-4.49219Q85.4004-4.49219 84.4727-5.39551Q83.5449-6.29883 83.5449-8.44727L83.5449-62.1094Q83.5449-64.2578 84.4727-65.1611Q85.4004-66.0645 87.5977-66.0645L96.4844-66.0645Q98.6328-66.0645 99.5605-65.1611Q100.488-64.2578 100.488-62.1094L100.488-8.44727Q100.488-6.29883 99.5605-5.39551Q98.6328-4.49219 96.4844-4.49219Z"/>
  </g>
  <g id="Thin-S" transform="matrix(1 0 0 1 800.294 696)">
   <path d="M16.7969 0.244141L28.125 0.244141Q31.6406 0.244141 33.4229-1.51367Q35.2051-3.27148 35.2051-6.78711L35.2051-41.9434Q35.2051-45.5078 33.4229-47.2412Q31.6406-48.9746 28.125-48.9746L16.7969-48.9746Q13.2812-48.9746 11.5234-47.2412Q9.76562-45.5078 9.76562-41.9434L9.76562-6.78711Q9.76562-3.27148 11.5234-1.51367Q13.2812 0.244141 16.7969 0.244141ZM17.1387-2.92969Q14.9902-2.92969 14.0137-3.93066Q13.0371-4.93164 13.0371-7.12891L13.0371-41.6016Q13.0371-43.75 14.0137-44.7754Q14.9902-45.8008 17.1387-45.8008L27.832-45.8008Q29.9316-45.8008 30.9326-44.7754Q31.9336-43.75 31.9336-41.6016L31.9336-7.12891Q31.9336-4.93164 30.9326-3.93066Q29.9316-2.92969 27.832-2.92969ZM50.4395 0.244141L61.8164 0.244141Q65.2832 0.244141 67.0654-1.51367Q68.8477-3.27148 68.8477-6.78711L68.8477-52.832Q68.8477-56.3477 67.0654-58.1055Q65.2832-59.8633 61.8164-59.8633L50.4395-59.8633Q46.9238-59.8633 45.166-58.1055Q43.4082-56.3477 43.4082-52.832L43.4082-6.78711Q43.4082-3.27148 45.166-1.51367Q46.9238 0.244141 50.4395 0.244141ZM50.7812-2.92969Q48.6816-2.92969 47.6807-3.93066Q46.6797-4.93164 46.6797-7.12891L46.6797-52.4902Q46.6797-54.6387 47.6807-55.6641Q48.6816-56.6895 50.7812-56.6895L61.4746-56.6895Q63.5742-56.6895 64.5752-55.6641Q65.5762-54.6387 65.5762-52.4902L65.5762-7.12891Q65.5762-4.93164 64.5752-3.93066Q63.5742-2.92969 61.4746-2.92969ZM84.082 0.244141L95.459 0.244141Q98.9258 0.244141 100.708-1.51367Q102.49-3.27148 102.49-6.78711L102.49-63.8672Q102.49-67.4316 100.708-69.165Q98.9258-70.8984 95.459-70.8984L84.082-70.8984Q80.6152-70.8984 78.8574-69.165Q77.0996-67.4316 77.0996-63.8672L77.0996-6.78711Q77.0996-3.27148 78.8574-1.51367Q80.6152 0.244141 84.082 0.244141ZM84.4727-2.92969Q82.3242-2.92969 81.3477-3.93066Q80.3711-4.93164 80.3711-7.12891L80.3711-63.5254Q80.3711-65.6738 81.3477-66.6992Q82.3242-67.7246 84.4727-67.7246L95.1172-67.7246Q97.2656-67.7246 98.2422-66.6992Q99.2188-65.6738 99.2188-63.5254L99.2188-7.12891Q99.2188-4.93164 98.2422-3.93066Q97.2656-2.92969 95.1172-2.92969Z"/>
  </g>
  <g id="Ultralight-S" transform="matrix(1 0 0 1 504.438 696)">
   <path d="M16.0156 0.0488281L27.7832 0.0488281Q30.9082 0.0488281 32.4951-1.5625Q34.082-3.17383 34.082-6.39648L34.082-42.5293Q34.082-45.8008 32.4951-47.3877Q30.9082-48.9746 27.7832-48.9746L16.0156-48.9746Q12.9395-48.9746 11.3525-47.3877Q9.76562-45.8008 9.76562-42.5293L9.76562-6.39648Q9.76562-3.17383 11.3525-1.5625Q12.9395 0.0488281 16.0156 0.0488281ZM16.1133-2.09961Q14.0137-2.09961 12.9883-3.19824Q11.9629-4.29688 11.9629-6.49414L11.9629-42.4805Q11.9629-44.6289 12.9883-45.7031Q14.0137-46.7773 16.1133-46.7773L27.7344-46.7773Q29.7852-46.7773 30.8105-45.7031Q31.8359-44.6289 31.8359-42.4805L31.8359-6.49414Q31.8359-4.29688 30.8105-3.19824Q29.7852-2.09961 27.7344-2.09961ZM49.4141 0.0488281L61.1328 0.0488281Q64.2578 0.0488281 65.8447-1.5625Q67.4316-3.17383 67.4316-6.39648L67.4316-53.3203Q67.4316-56.5918 65.8447-58.1787Q64.2578-59.7656 61.1328-59.7656L49.4141-59.7656Q46.2891-59.7656 44.7021-58.1787Q43.1152-56.5918 43.1152-53.3203L43.1152-6.39648Q43.1152-3.17383 44.7021-1.5625Q46.2891 0.0488281 49.4141 0.0488281ZM49.4629-2.09961Q47.4121-2.09961 46.3623-3.19824Q45.3125-4.29688 45.3125-6.49414L45.3125-53.2715Q45.3125-55.4199 46.3623-56.4941Q47.4121-57.5684 49.4629-57.5684L61.084-57.5684Q63.1836-57.5684 64.1846-56.4941Q65.1855-55.4199 65.1855-53.2715L65.1855-6.49414Q65.1855-4.29688 64.1846-3.19824Q63.1836-2.09961 61.084-2.09961ZM82.7637 0.0488281L94.4824 0.0488281Q97.6074 0.0488281 99.1943-1.5625Q100.781-3.17383 100.781-6.39648L100.781-64.3066Q100.781-67.5781 99.1943-69.165Q97.6074-70.752 94.4824-70.752L82.7637-70.752Q79.6875-70.752 78.1006-69.165Q76.5137-67.5781 76.5137-64.3066L76.5137-6.39648Q76.5137-3.17383 78.1006-1.5625Q79.6875 0.0488281 82.7637 0.0488281ZM82.8613-2.09961Q80.7617-2.09961 79.7363-3.19824Q78.7109-4.29688 78.7109-6.49414L78.7109-64.2578Q78.7109-66.4062 79.7363-67.4805Q80.7617-68.5547 82.8613-68.5547L94.4824-68.5547Q96.5332-68.5547 97.5586-67.4805Q98.584-66.4062 98.584-64.2578L98.584-6.49414Q98.584-4.29688 97.5586-3.19824Q96.5332-2.09961 94.4824-2.09961Z"/>
  </g>
 </g>
</svg>
